<?xml version="1.0" encoding="utf-8"?>
<!-- Generator: Adobe Illustrator 12.0.0, SVG Export Plug-In . SVG Version: 6.00 Build 51448)  -->
<!DOCTYPE svg PUBLIC "-//W3C//DTD SVG 1.1//EN" "http://www.w3.org/Graphics/SVG/1.1/DTD/svg11.dtd" [
	<!ENTITY ns_svg "http://www.w3.org/2000/svg">
	<!ENTITY ns_xlink "http://www.w3.org/1999/xlink">
]>
<svg  version="1.1" id="レイヤー_1" xmlns="&ns_svg;" xmlns:xlink="&ns_xlink;" width="120" height="23" viewBox="0 0 120 23"
	 overflow="visible" enable-background="new 0 0 120 23" xml:space="preserve">
<g>
	<path fill="#F4F4F4" d="M22.373,17.68c-0.14,0-0.3-0.06-0.42-0.199c-2.66-2.841-6.04-7.04-9.56-11.961
		c-0.12-0.18-0.26-0.26-0.38-0.26c-0.16,0-0.32,0.061-0.44,0.28c-1.46,2.72-2.98,5-4.86,7.64c-0.12,0.181-0.28,0.261-0.44,0.261
		c-0.32,0-0.64-0.301-0.64-0.641c0-0.12,0.04-0.24,0.12-0.359c1.92-2.601,3.44-4.761,4.98-7.681C10.933,4.4,11.413,4,11.893,4
		s1.04,0.24,1.3,0.62c3.58,5.28,6.96,9.02,9.68,12.02c0.12,0.12,0.16,0.261,0.16,0.4C23.033,17.38,22.712,17.68,22.373,17.68z
		 M19.013,7.18c-1.32,0-2.36-1.04-2.36-2.34c0-1.28,1.04-2.32,2.36-2.32c1.28,0,2.32,1.04,2.32,2.32
		C21.333,6.14,20.292,7.18,19.013,7.18z M19.013,3.48c-0.78,0-1.4,0.6-1.4,1.359c0,0.78,0.62,1.38,1.4,1.38
		c0.74,0,1.36-0.6,1.36-1.38C20.373,4.08,19.752,3.48,19.013,3.48z"/>
	<path fill="#F4F4F4" d="M28.252,11.2c0,0.34-0.28,0.54-0.56,0.54c-0.26,0-0.5-0.141-0.56-0.48c-0.2-1.18-0.86-3.779-1.16-4.859
		c-0.02-0.061-0.02-0.12-0.02-0.16c0-0.36,0.3-0.561,0.58-0.561c0.22,0,0.46,0.12,0.54,0.42c0.32,1.16,1,3.681,1.18,5
		C28.252,11.14,28.252,11.16,28.252,11.2z M29.093,19.52c-0.04,0-0.1,0.021-0.14,0.021c-0.34,0-0.5-0.28-0.5-0.58
		c0-0.26,0.14-0.52,0.46-0.58c5.96-1.32,9.52-5.399,9.76-12.08c0.02-0.359,0.3-0.54,0.58-0.54c0.32,0,0.58,0.26,0.58,0.58
		C39.672,14.24,34.833,18.38,29.093,19.52z M33.292,10.76c0,0.32-0.28,0.58-0.58,0.58c-0.26,0-0.52-0.16-0.56-0.52
		c-0.12-1.261-0.64-3.84-0.92-4.94c-0.02-0.06-0.02-0.1-0.02-0.14c0-0.34,0.3-0.561,0.6-0.561c0.24,0,0.46,0.141,0.54,0.44
		c0.26,1.2,0.86,3.939,0.94,5.1C33.292,10.74,33.292,10.74,33.292,10.76z"/>
	<path fill="#F4F4F4" d="M56.753,12.22c-0.08,0-0.16,0-0.24-0.04c-3.18-1.3-7.24-2.5-10.48-3.239v10.38c0,0.399-0.3,0.6-0.6,0.6
		c-0.3,0-0.62-0.2-0.62-0.6V2.28c0-0.4,0.32-0.601,0.62-0.601c0.3,0,0.6,0.2,0.6,0.601v5.38c3.4,0.78,7.26,2.04,10.96,3.32
		c0.26,0.079,0.38,0.3,0.38,0.539C57.373,11.86,57.112,12.22,56.753,12.22z"/>
	<path fill="#F4F4F4" d="M64.973,9.78c-0.8,2.939-2.2,6.2-3.3,7.96c-0.12,0.22-0.3,0.279-0.48,0.279
		c-0.319,0-0.659-0.279-0.659-0.619c0-0.12,0.04-0.221,0.1-0.341c1.06-1.699,2.42-4.819,3.16-7.6C63.873,9.14,64.112,9,64.373,9
		c0.3,0,0.62,0.22,0.62,0.6C64.993,9.64,64.993,9.72,64.973,9.78z M76.793,6.64h-7.061V19.24c0,0.399-0.3,0.6-0.6,0.6
		s-0.6-0.2-0.6-0.6V6.64h-7.021c-0.399,0-0.6-0.3-0.6-0.62c0-0.3,0.2-0.6,0.6-0.6h7.021V2.28c0-0.4,0.3-0.601,0.6-0.601
		s0.6,0.2,0.6,0.601v3.14h7.061c0.399,0,0.6,0.3,0.6,0.6C77.393,6.34,77.192,6.64,76.793,6.64z M77.152,17.96
		c-0.22,0-0.46-0.12-0.54-0.4c-0.76-2.18-2.439-5.84-3.38-7.72c-0.06-0.1-0.08-0.2-0.08-0.28c0-0.34,0.32-0.619,0.62-0.619
		c0.2,0,0.38,0.1,0.5,0.319c1.32,2.44,2.641,5.62,3.5,7.9c0.021,0.08,0.04,0.16,0.04,0.22C77.813,17.74,77.473,17.96,77.152,17.96z
		 M76.152,5.28c-0.159,0-0.34-0.08-0.439-0.28c-0.34-0.66-1.22-1.88-1.561-2.32c-0.1-0.1-0.14-0.22-0.14-0.319
		c0-0.301,0.28-0.54,0.561-0.54c0.14,0,0.279,0.06,0.399,0.199c0.44,0.54,1.38,1.9,1.68,2.461c0.04,0.1,0.061,0.18,0.061,0.279
		C76.713,5.06,76.433,5.28,76.152,5.28z M78.453,4.12c-0.181,0-0.341-0.08-0.46-0.28c-0.36-0.7-1.221-1.88-1.54-2.3
		c-0.08-0.12-0.101-0.22-0.101-0.34c0-0.28,0.24-0.54,0.521-0.54c0.14,0,0.279,0.06,0.399,0.22c0.5,0.601,1.34,1.84,1.66,2.46
		c0.061,0.08,0.08,0.18,0.08,0.26C79.013,3.9,78.732,4.12,78.453,4.12z"/>
	<path fill="#F4F4F4" d="M94.353,12.22c-0.08,0-0.16,0-0.24-0.04c-3.18-1.3-7.24-2.5-10.479-3.239v10.38
		c0,0.399-0.301,0.6-0.601,0.6s-0.62-0.2-0.62-0.6V2.28c0-0.4,0.32-0.601,0.62-0.601s0.601,0.2,0.601,0.601v5.38
		c3.399,0.78,7.26,2.04,10.96,3.32c0.26,0.079,0.38,0.3,0.38,0.539C94.973,11.86,94.712,12.22,94.353,12.22z"/>
	<path fill="#F4F4F4" d="M99.532,19.22c-0.14,0.16-0.3,0.221-0.46,0.221c-0.32,0-0.62-0.28-0.62-0.601c0-0.14,0.04-0.28,0.16-0.399
		c1.64-1.921,2.98-5.66,2.98-11.16V2.84c0-0.399,0.3-0.6,0.6-0.6c0.32,0,0.62,0.2,0.62,0.6v4.44
		C102.813,12.64,101.593,16.92,99.532,19.22z M107.313,19.22c-0.08,0.021-0.14,0.021-0.22,0.021c-0.341,0-0.54-0.221-0.54-0.62V2.72
		c0-0.399,0.3-0.6,0.6-0.6c0.32,0,0.62,0.2,0.62,0.6v15.16c4.06-1.399,6-5.12,6.46-9.28c0.04-0.359,0.3-0.52,0.58-0.52
		c0.3,0,0.6,0.18,0.6,0.58c0,0.02,0,0.06,0,0.1C114.813,13.88,112.093,18.2,107.313,19.22z"/>
</g>
</svg>
