<?xml version="1.0" encoding="utf-8"?>
<!-- Generator: Adobe Illustrator 12.0.0, SVG Export Plug-In . SVG Version: 6.00 Build 51448)  -->
<!DOCTYPE svg PUBLIC "-//W3C//DTD SVG 1.1//EN" "http://www.w3.org/Graphics/SVG/1.1/DTD/svg11.dtd" [
	<!ENTITY ns_svg "http://www.w3.org/2000/svg">
	<!ENTITY ns_xlink "http://www.w3.org/1999/xlink">
]>
<svg  version="1.1" id="レイヤー_1" xmlns="&ns_svg;" xmlns:xlink="&ns_xlink;" width="120" height="23" viewBox="0 0 120 23"
	 overflow="visible" enable-background="new 0 0 120 23" xml:space="preserve">
<g>
	<path fill="#F2F2F2" d="M9.823,12c-0.11,0.309-0.33,0.463-0.594,0.463c-0.308,0-0.638-0.242-0.638-0.616
		c0-0.066,0-0.132,0.022-0.198c0.55-2.002,0.748-4.994,0.748-4.994c0.022-0.418,0.308-0.594,0.616-0.594s0.638,0.22,0.638,0.638
		v0.11C10.615,6.809,10.417,9.867,9.823,12z M15.455,5.774c-0.594,1.298-1.298,2.618-1.892,3.498
		c-0.22,0.33-0.396,0.396-0.528,0.396c-0.11,0-0.198-0.066-0.22-0.044c-0.044,1.144-0.22,2.926-0.396,3.917
		c0,0,1.606,2.266,2.508,4.246c0.044,0.109,0.066,0.197,0.066,0.285c0,0.374-0.33,0.617-0.66,0.617c-0.22,0-0.44-0.111-0.572-0.375
		c-0.506-1.21-1.21-2.42-1.694-3.124c-0.858,3.872-2.2,6.116-2.2,6.116c-0.132,0.221-0.33,0.309-0.528,0.309
		c-0.33,0-0.66-0.266-0.66-0.617c0-0.088,0.044-0.219,0.11-0.33c0,0,2.75-4.642,2.75-11.835V2.584c0-0.418,0.308-0.638,0.616-0.638
		c0.308,0,0.616,0.22,0.616,0.638v5.632c0.506-0.792,1.1-1.936,1.562-2.948c0.11-0.264,0.33-0.374,0.528-0.374
		c0.33,0,0.638,0.264,0.638,0.616C15.499,5.599,15.499,5.687,15.455,5.774z M27.863,15.301c-0.132,0-0.264-0.022-0.396-0.133
		c0,0-2.662-2.045-3.652-5.631c-1.056,3.872-4.07,5.786-4.07,5.786c-0.11,0.066-0.242,0.11-0.33,0.11
		c-0.352,0-0.616-0.33-0.616-0.66c0-0.198,0.088-0.396,0.308-0.528c0,0,3.366-2.023,3.828-6.49h-1.826
		c-1.76,5.984-4.928,7.789-4.928,7.789c-0.132,0.088-0.264,0.131-0.374,0.131c-0.352,0-0.616-0.307-0.616-0.637
		c0-0.154,0.066-0.33,0.242-0.484c0,0,1.716-1.166,2.596-2.662c-0.462-0.858-1.32-1.87-1.826-2.398
		c-0.088-0.088-0.154-0.176-0.154-0.33c0-0.066,0.022-0.176,0.11-0.308c-0.044,0.088-0.352,0.44-0.352,0.44
		c-0.132,0.154-0.308,0.242-0.484,0.242c-0.33,0-0.638-0.286-0.638-0.638c0-0.132,0.044-0.264,0.132-0.396
		c0,0,1.914-2.376,2.816-6.27c0.088-0.33,0.33-0.484,0.594-0.484c0.308,0,0.638,0.22,0.638,0.594c0,0.044-0.022,0.11-0.022,0.154
		c-0.066,0.308-0.154,0.594-0.22,0.902h2.662c0.418,0,0.638,0.176,0.638,0.55c0,0.044,0,0.11-0.022,0.154
		c-0.11,0.858-0.264,1.65-0.462,2.42h1.65c0.022-0.594,0.022-1.232,0.022-1.848c0-1.232-0.022-2.31-0.022-2.31
		c0-0.418,0.308-0.616,0.638-0.616c0.308,0,0.616,0.198,0.616,0.616c0,0,0,1.078,0,2.31c0,0.616,0,1.254,0,1.848h3.432
		c0.418,0,0.638,0.308,0.638,0.616s-0.22,0.616-0.638,0.616h-3.168c0.506,4.092,3.652,6.424,3.652,6.424
		c0.176,0.153,0.242,0.308,0.242,0.483C28.501,14.992,28.215,15.301,27.863,15.301z M17.875,16.599c0,0-0.836,2.815-1.848,4.687
		c-0.132,0.242-0.33,0.33-0.55,0.33c-0.33,0-0.66-0.266-0.66-0.617c0-0.109,0.022-0.219,0.088-0.33
		c0.968-1.76,1.76-4.422,1.76-4.422c0.088-0.308,0.352-0.439,0.594-0.439c0.33,0,0.66,0.22,0.66,0.55
		C17.919,16.422,17.897,16.511,17.875,16.599z M17.677,7.139c-0.176-0.154-0.198-0.396-0.198-0.638
		c-0.242,0.528-0.836,1.562-1.056,1.98c0,0,0.088-0.044,0.22-0.044c0.132,0,0.308,0.044,0.462,0.198
		c0.462,0.484,1.144,1.254,1.584,2.002c0.242-0.484,0.462-1.034,0.682-1.606C18.887,8.371,18.183,7.623,17.677,7.139z M18.205,4.653
		c-0.088,0.33-0.33,1.012-0.484,1.32c0.132-0.044,0.22-0.088,0.308-0.088c0.132,0,0.242,0.088,0.418,0.264
		c0.396,0.374,0.968,0.946,1.408,1.474c0.264-0.902,0.506-1.892,0.704-2.97H18.205z M20.207,21.307
		c-0.308,0-0.616-0.221-0.616-0.615c0,0,0-0.309,0-0.441c0-1.627-0.132-3.651-0.132-3.651c0-0.022,0-0.154,0-0.154
		c0-0.44,0.33-0.659,0.66-0.659c0.286,0,0.572,0.197,0.594,0.594c0,0,0.132,2.244,0.132,3.871c0,0.133,0,0.287,0,0.441
		C20.823,21.086,20.515,21.307,20.207,21.307z M23.859,21.307c-0.286,0-0.572-0.176-0.616-0.551
		c-0.242-1.715-0.726-4.201-0.726-4.201c-0.022-0.044-0.022-0.088-0.022-0.133c0-0.396,0.33-0.615,0.66-0.615
		c0.264,0,0.506,0.154,0.55,0.484c0,0,0.55,2.529,0.792,4.289c0,0.045,0,0.066,0,0.133C24.497,21.086,24.167,21.307,23.859,21.307z
		 M26.697,5.621c-0.22,0-0.44-0.11-0.55-0.396c-0.396-1.034-0.836-1.65-0.836-1.65c-0.088-0.11-0.11-0.242-0.11-0.352
		c0-0.33,0.33-0.616,0.66-0.616c0.176,0,0.352,0.088,0.484,0.286c0,0,0.484,0.704,0.968,1.87c0.044,0.088,0.044,0.176,0.044,0.264
		C27.357,5.378,27.027,5.621,26.697,5.621z M28.039,21.592c-0.242,0-0.462-0.131-0.572-0.418c-0.726-2.156-1.628-4.531-1.628-4.531
		c-0.022-0.088-0.044-0.176-0.044-0.242c0-0.352,0.33-0.594,0.66-0.594c0.22,0,0.44,0.109,0.55,0.396c0,0,0.88,2.375,1.628,4.576
		c0.022,0.088,0.044,0.152,0.044,0.242C28.677,21.35,28.347,21.592,28.039,21.592z"/>
	<path fill="#F2F2F2" d="M56.463,21.131c-0.925,0.066-1.826,0.088-2.729,0.088c-0.813,0-1.628-0.021-2.42-0.066
		c-1.848-0.131-2.882-0.814-2.882-2.859c0-0.484,0.11-1.299,0.11-1.871c0-1.319-0.484-2.002-1.364-2.002
		c-2.2,0-4.048,2.024-8.514,6.754c-0.154,0.154-0.33,0.221-0.484,0.221c-0.374,0-0.704-0.309-0.704-0.66
		c0-0.133,0.066-0.285,0.176-0.418c2.442-2.706,9.702-9.372,12.782-12.034H40.403c-0.44,0-0.66-0.33-0.66-0.682
		c0-0.33,0.22-0.66,0.66-0.66h11.771c0.483,0,0.748,0.264,0.748,0.572c0,0.198-0.089,0.418-0.33,0.616c0,0-2.882,2.464-6.05,5.325
		c0.308-0.066,0.616-0.11,0.902-0.11c1.519,0,2.442,1.056,2.442,3.079c0,0.463-0.11,1.255-0.11,1.738
		c0,1.145,0.528,1.584,1.584,1.672c0.748,0.045,1.584,0.088,2.486,0.088c0.836,0,1.737-0.088,2.573-0.109c0.022,0,0.022,0,0.045,0
		c0.396,0,0.638,0.285,0.638,0.639C57.101,20.756,56.881,21.086,56.463,21.131z M51.865,4.851c-0.065,0-0.109,0-0.176-0.022
		c-2.596-0.572-5.874-0.99-8.954-1.276c-0.418-0.044-0.594-0.352-0.594-0.66c0-0.352,0.264-0.682,0.66-0.682
		c0.022,0,0.044,0,0.066,0c2.948,0.242,6.688,0.902,9.064,1.342c0.374,0.066,0.527,0.352,0.527,0.638
		C52.458,4.521,52.239,4.851,51.865,4.851z"/>
	<path fill="#F2F2F2" d="M75.537,6.17c-0.857,0.066-2.398,0.198-4.07,0.33c-1.232,4.268-2.926,8.888-4.137,11.33
		c-0.131,0.265-0.352,0.375-0.57,0.375c-0.354,0-0.684-0.287-0.684-0.66c0-0.088,0.023-0.198,0.066-0.287
		c1.123-2.309,2.707-6.599,3.916-10.647c-1.254,0.066-2.486,0.132-3.387,0.132c-0.441,0-0.66-0.33-0.66-0.66s0.219-0.66,0.66-0.66
		c0.988,0,2.375-0.088,3.783-0.176c0.309-1.1,0.572-2.134,0.791-3.102c0.088-0.352,0.354-0.506,0.639-0.506
		c0.352,0,0.66,0.242,0.66,0.616c0,0.066,0,0.11-0.021,0.176c-0.176,0.836-0.396,1.76-0.66,2.706
		c1.473-0.132,2.838-0.242,3.586-0.308c0.021,0,0.043,0,0.066,0c0.395,0,0.637,0.352,0.637,0.682
		C76.152,5.819,75.955,6.148,75.537,6.17z M85.063,19.217c-0.154,0-0.309-0.045-0.461-0.176c-0.881-0.814-2.025-1.694-3.301-2.442
		c0,0,0,0.176,0,0.308c0,2.904-2.156,4.4-5.258,4.4c-3.125,0-4.686-1.959-4.686-3.762c0-2.553,2.332-3.74,4.598-3.74
		c1.342,0,2.662,0.264,3.871,0.703c-0.088-1.407-0.219-3.145-0.219-4.795c0-0.374,0-0.748,0.021-1.1
		c0.021-0.418,0.33-0.638,0.66-0.638c0,0,0.66,0,0.66,0.682c0,0.352-0.021,0.726-0.021,1.1c0,1.892,0.176,3.85,0.285,5.346
		c1.629,0.792,3.102,1.87,4.289,2.948c0.178,0.154,0.242,0.33,0.242,0.484C85.744,18.887,85.414,19.217,85.063,19.217z
		 M79.938,15.916c-1.232-0.527-2.574-0.879-3.961-0.879c-1.496,0-3.277,0.748-3.277,2.529c0,1.232,1.209,2.441,3.365,2.441
		c2.201,0,3.895-0.9,3.895-3.189C79.959,16.576,79.959,16.269,79.938,15.916z M84.359,7.314c-0.045,0-0.088,0-0.154-0.022
		c-1.672-0.396-4.158-0.814-5.918-1.056c-0.418-0.044-0.617-0.374-0.617-0.682c0-0.352,0.242-0.66,0.639-0.66
		c0.045,0,0.066,0,0.109,0c1.98,0.242,4.73,0.77,6.117,1.122c0.352,0.088,0.506,0.352,0.506,0.616
		C85.041,7.007,84.732,7.314,84.359,7.314z"/>
	<path fill="#F2F2F2" d="M99.648,20.338c-1.363,0-2.838-1.584-3.717-4.971c-0.551-2.135-0.836-4.643-0.836-7.283
		c0-1.452,0.064-2.926,0.24-4.4c0.066-0.396,0.354-0.594,0.66-0.594c0.375,0,0.684,0.308,0.684,0.682c0,0.022,0,0.044,0,0.066
		c-0.154,1.43-0.266,2.86-0.266,4.268c0,2.486,0.266,4.884,0.793,6.908c0.594,2.31,1.65,4.003,2.441,4.003
		c1.057,0,2.047-1.605,2.816-4.245c0.088-0.353,0.352-0.506,0.594-0.506c0.33,0,0.66,0.241,0.66,0.638
		c0,0.066-0.021,0.133-0.045,0.221C102.641,18.732,101.102,20.338,99.648,20.338z M113.795,15.477c0,0.418-0.352,0.616-0.682,0.616
		c-0.287,0-0.572-0.154-0.66-0.528c-0.881-3.828-2.641-7.656-4.137-9.79c-0.088-0.132-0.131-0.264-0.131-0.396
		c0-0.352,0.33-0.66,0.658-0.66c0.199,0,0.375,0.088,0.529,0.286c1.672,2.222,3.607,6.534,4.4,10.296
		C113.795,15.367,113.795,15.433,113.795,15.477z"/>
</g>
</svg>
