<?xml version="1.0" encoding="utf-8"?>
<!-- Generator: Adobe Illustrator 12.0.0, SVG Export Plug-In . SVG Version: 6.00 Build 51448)  -->
<!DOCTYPE svg PUBLIC "-//W3C//DTD SVG 1.1//EN" "http://www.w3.org/Graphics/SVG/1.1/DTD/svg11.dtd" [
	<!ENTITY ns_svg "http://www.w3.org/2000/svg">
	<!ENTITY ns_xlink "http://www.w3.org/1999/xlink">
]>
<svg  version="1.1" id="レイヤー_1" xmlns="&ns_svg;" xmlns:xlink="&ns_xlink;" width="120" height="23" viewBox="0 0 120 23"
	 overflow="visible" enable-background="new 0 0 120 23" xml:space="preserve">
<g>
	<path fill="#F4F4F4" d="M2.292,10.88c-0.1,0.28-0.3,0.42-0.54,0.42c-0.28,0-0.58-0.22-0.58-0.56c0-0.061,0-0.12,0.02-0.181
		c0.5-1.819,0.68-4.54,0.68-4.54c0.02-0.38,0.28-0.539,0.56-0.539c0.28,0,0.58,0.199,0.58,0.579V6.16
		C3.013,6.16,2.833,8.94,2.292,10.88z M7.413,5.22C6.873,6.4,6.232,7.6,5.692,8.4c-0.2,0.3-0.36,0.359-0.48,0.359
		c-0.1,0-0.18-0.06-0.2-0.04c-0.04,1.04-0.2,2.66-0.36,3.561c0,0,1.46,2.06,2.28,3.859c0.04,0.101,0.06,0.181,0.06,0.261
		c0,0.34-0.3,0.56-0.6,0.56c-0.2,0-0.4-0.1-0.52-0.34c-0.46-1.101-1.1-2.2-1.54-2.84c-0.78,3.52-2,5.56-2,5.56
		c-0.12,0.2-0.3,0.28-0.48,0.28c-0.3,0-0.6-0.24-0.6-0.561c0-0.079,0.04-0.199,0.1-0.3c0,0,2.5-4.22,2.5-10.76V2.32
		c0-0.38,0.28-0.58,0.56-0.58c0.28,0,0.56,0.2,0.56,0.58v5.12c0.46-0.721,1-1.761,1.42-2.681c0.1-0.24,0.3-0.34,0.48-0.34
		c0.3,0,0.58,0.24,0.58,0.561C7.453,5.06,7.453,5.14,7.413,5.22z M18.692,13.88c-0.12,0-0.24-0.02-0.36-0.12
		c0,0-2.42-1.859-3.32-5.12c-0.96,3.521-3.7,5.261-3.7,5.261c-0.1,0.06-0.22,0.1-0.3,0.1c-0.32,0-0.56-0.3-0.56-0.6
		c0-0.181,0.08-0.36,0.28-0.48c0,0,3.06-1.84,3.48-5.9h-1.66c-1.6,5.44-4.48,7.08-4.48,7.08c-0.12,0.08-0.24,0.12-0.34,0.12
		c-0.32,0-0.56-0.279-0.56-0.58c0-0.14,0.06-0.3,0.22-0.439c0,0,1.56-1.061,2.36-2.42c-0.42-0.78-1.2-1.7-1.66-2.181
		c-0.08-0.08-0.14-0.159-0.14-0.3c0-0.06,0.02-0.16,0.1-0.28c-0.04,0.08-0.32,0.4-0.32,0.4c-0.12,0.14-0.28,0.22-0.44,0.22
		c-0.3,0-0.58-0.26-0.58-0.58c0-0.119,0.04-0.239,0.12-0.359c0,0,1.74-2.16,2.56-5.7c0.08-0.3,0.3-0.44,0.54-0.44
		c0.28,0,0.58,0.2,0.58,0.54c0,0.04-0.02,0.101-0.02,0.141c-0.06,0.279-0.14,0.54-0.2,0.819h2.42c0.38,0,0.58,0.16,0.58,0.5
		c0,0.04,0,0.101-0.02,0.141c-0.1,0.78-0.24,1.5-0.42,2.2h1.5c0.02-0.54,0.02-1.12,0.02-1.681c0-1.12-0.02-2.1-0.02-2.1
		c0-0.38,0.28-0.561,0.58-0.561c0.28,0,0.56,0.181,0.56,0.561c0,0,0,0.979,0,2.1c0,0.561,0,1.141,0,1.681h3.12
		c0.38,0,0.58,0.279,0.58,0.56s-0.2,0.56-0.58,0.56h-2.88c0.46,3.721,3.32,5.841,3.32,5.841c0.16,0.14,0.22,0.279,0.22,0.439
		C19.272,13.6,19.013,13.88,18.692,13.88z M9.612,15.06c0,0-0.76,2.561-1.68,4.261c-0.12,0.22-0.3,0.3-0.5,0.3
		c-0.3,0-0.6-0.24-0.6-0.561c0-0.1,0.02-0.199,0.08-0.3c0.88-1.6,1.6-4.02,1.6-4.02c0.08-0.28,0.32-0.4,0.54-0.4
		c0.3,0,0.6,0.2,0.6,0.5C9.652,14.9,9.632,14.98,9.612,15.06z M9.433,6.46c-0.16-0.14-0.18-0.36-0.18-0.58
		c-0.22,0.48-0.76,1.42-0.96,1.8c0,0,0.08-0.04,0.2-0.04c0.12,0,0.28,0.04,0.42,0.181c0.42,0.439,1.04,1.14,1.44,1.819
		c0.22-0.439,0.42-0.939,0.62-1.46C10.533,7.58,9.893,6.9,9.433,6.46z M9.913,4.2c-0.08,0.3-0.3,0.92-0.44,1.2
		c0.12-0.04,0.2-0.08,0.28-0.08c0.12,0,0.22,0.08,0.38,0.239c0.36,0.341,0.88,0.86,1.28,1.341c0.24-0.82,0.46-1.721,0.64-2.7H9.913z
		 M11.732,19.34c-0.28,0-0.56-0.2-0.56-0.56c0,0,0-0.28,0-0.4c0-1.479-0.12-3.32-0.12-3.32c0-0.02,0-0.14,0-0.14
		c0-0.4,0.3-0.6,0.6-0.6c0.26,0,0.52,0.18,0.54,0.54c0,0,0.12,2.04,0.12,3.52c0,0.12,0,0.26,0,0.4
		C12.292,19.14,12.013,19.34,11.732,19.34z M15.053,19.34c-0.26,0-0.52-0.16-0.56-0.5c-0.22-1.56-0.66-3.82-0.66-3.82
		c-0.02-0.039-0.02-0.079-0.02-0.119c0-0.36,0.3-0.561,0.6-0.561c0.24,0,0.46,0.141,0.5,0.44c0,0,0.5,2.3,0.72,3.899
		c0,0.04,0,0.061,0,0.12C15.632,19.14,15.333,19.34,15.053,19.34z M17.632,5.08c-0.2,0-0.4-0.1-0.5-0.36
		c-0.36-0.939-0.76-1.5-0.76-1.5c-0.08-0.1-0.1-0.22-0.1-0.319c0-0.301,0.3-0.561,0.6-0.561c0.16,0,0.32,0.08,0.44,0.26
		c0,0,0.44,0.641,0.88,1.7c0.04,0.08,0.04,0.16,0.04,0.24C18.232,4.86,17.933,5.08,17.632,5.08z M18.853,19.6
		c-0.22,0-0.42-0.119-0.52-0.38c-0.66-1.96-1.48-4.12-1.48-4.12c-0.02-0.08-0.04-0.159-0.04-0.22c0-0.32,0.3-0.54,0.6-0.54
		c0.2,0,0.4,0.101,0.5,0.36c0,0,0.8,2.16,1.48,4.16c0.02,0.08,0.04,0.14,0.04,0.22C19.433,19.38,19.132,19.6,18.853,19.6z"/>
	<path fill="#F4F4F4" d="M38.692,19.18c-0.84,0.061-1.66,0.08-2.48,0.08c-0.74,0-1.48-0.02-2.2-0.06
		c-1.68-0.12-2.62-0.74-2.62-2.601c0-0.439,0.1-1.18,0.1-1.699c0-1.2-0.44-1.82-1.24-1.82c-2,0-3.68,1.84-7.74,6.14
		c-0.14,0.141-0.3,0.2-0.44,0.2c-0.34,0-0.64-0.28-0.64-0.6c0-0.12,0.06-0.261,0.16-0.38c2.22-2.46,8.82-8.521,11.62-10.94h-9.12
		c-0.4,0-0.6-0.3-0.6-0.62c0-0.3,0.2-0.6,0.6-0.6h10.7c0.44,0,0.68,0.239,0.68,0.52c0,0.181-0.08,0.38-0.3,0.561
		c0,0-2.62,2.239-5.5,4.84c0.28-0.061,0.56-0.101,0.82-0.101c1.38,0,2.22,0.96,2.22,2.801c0,0.42-0.1,1.14-0.1,1.58
		c0,1.039,0.48,1.439,1.44,1.52c0.68,0.04,1.44,0.08,2.26,0.08c0.76,0,1.58-0.08,2.34-0.1c0.02,0,0.02,0,0.04,0
		c0.36,0,0.58,0.26,0.58,0.579C39.272,18.84,39.072,19.14,38.692,19.18z M34.513,4.38c-0.06,0-0.1,0-0.16-0.02
		c-2.36-0.521-5.34-0.9-8.14-1.16c-0.38-0.04-0.54-0.32-0.54-0.601c0-0.319,0.24-0.619,0.6-0.619c0.02,0,0.04,0,0.06,0
		c2.68,0.22,6.08,0.819,8.24,1.22c0.34,0.06,0.48,0.319,0.48,0.58C35.053,4.08,34.853,4.38,34.513,4.38z"/>
	<path fill="#F4F4F4" d="M50.033,5.58c-0.78,0.06-2.18,0.18-3.7,0.3c-1.12,3.88-2.66,8.08-3.76,10.3c-0.12,0.24-0.32,0.34-0.52,0.34
		c-0.32,0-0.62-0.26-0.62-0.6c0-0.08,0.02-0.18,0.06-0.26c1.02-2.101,2.46-6,3.56-9.68c-1.14,0.06-2.26,0.119-3.08,0.119
		c-0.4,0-0.6-0.3-0.6-0.6s0.2-0.6,0.6-0.6c0.9,0,2.16-0.08,3.44-0.16c0.28-1,0.52-1.94,0.72-2.82c0.08-0.32,0.32-0.46,0.58-0.46
		c0.32,0,0.6,0.22,0.6,0.56c0,0.061,0,0.101-0.02,0.16c-0.16,0.761-0.36,1.601-0.6,2.46c1.34-0.12,2.58-0.22,3.26-0.279
		c0.02,0,0.04,0,0.06,0c0.36,0,0.58,0.319,0.58,0.62C50.593,5.26,50.413,5.56,50.033,5.58z M58.692,17.44
		c-0.14,0-0.279-0.04-0.42-0.16c-0.8-0.74-1.84-1.54-3-2.221c0,0,0,0.16,0,0.28c0,2.641-1.96,4-4.78,4c-2.84,0-4.26-1.78-4.26-3.42
		c0-2.32,2.12-3.4,4.18-3.4c1.22,0,2.42,0.24,3.52,0.641c-0.08-1.28-0.2-2.86-0.2-4.36c0-0.34,0-0.68,0.021-1
		c0.02-0.38,0.3-0.58,0.6-0.58c0,0,0.601,0,0.601,0.62c0,0.32-0.021,0.66-0.021,1c0,1.72,0.16,3.5,0.26,4.86
		c1.48,0.72,2.82,1.7,3.9,2.68c0.16,0.14,0.22,0.3,0.22,0.44C59.313,17.14,59.013,17.44,58.692,17.44z M54.033,14.44
		c-1.12-0.48-2.34-0.801-3.601-0.801c-1.36,0-2.98,0.681-2.98,2.301c0,1.119,1.1,2.22,3.06,2.22c2,0,3.54-0.82,3.54-2.9
		C54.053,15.04,54.053,14.76,54.033,14.44z M58.053,6.62c-0.04,0-0.08,0-0.14-0.021c-1.521-0.359-3.78-0.739-5.38-0.96
		c-0.38-0.04-0.561-0.34-0.561-0.62c0-0.319,0.22-0.6,0.58-0.6c0.04,0,0.06,0,0.1,0c1.801,0.22,4.301,0.7,5.561,1.021
		c0.32,0.079,0.46,0.319,0.46,0.56C58.673,6.34,58.393,6.62,58.053,6.62z"/>
	<path fill="#F4F4F4" d="M65.952,18.46c-1.239,0-2.579-1.44-3.38-4.52c-0.5-1.94-0.76-4.221-0.76-6.62c0-1.32,0.061-2.66,0.22-4
		c0.061-0.36,0.32-0.54,0.601-0.54c0.34,0,0.62,0.279,0.62,0.62c0,0.02,0,0.04,0,0.06c-0.141,1.3-0.24,2.6-0.24,3.88
		c0,2.26,0.24,4.44,0.72,6.28c0.54,2.1,1.5,3.64,2.22,3.64c0.961,0,1.86-1.46,2.561-3.859c0.08-0.32,0.32-0.46,0.54-0.46
		c0.3,0,0.6,0.22,0.6,0.579c0,0.061-0.02,0.12-0.04,0.2C68.673,17,67.272,18.46,65.952,18.46z M78.813,14.04
		c0,0.38-0.32,0.56-0.62,0.56c-0.26,0-0.52-0.14-0.6-0.479c-0.8-3.48-2.4-6.96-3.76-8.9c-0.08-0.12-0.12-0.239-0.12-0.359
		c0-0.32,0.3-0.601,0.6-0.601c0.18,0,0.34,0.08,0.48,0.26c1.52,2.021,3.279,5.94,4,9.36C78.813,13.94,78.813,14,78.813,14.04z"/>
	<path fill="#F4F4F4" d="M96.412,17.54c-2.239,0.32-4.38,0.46-6.279,0.46c-3,0-5.381-0.32-6.48-0.7c-1.52-0.54-2.24-1.58-2.24-2.8
		c0-1.06,0.561-2.28,1.58-3.42c0.141-0.14,0.28-0.2,0.44-0.2c0.319,0,0.62,0.28,0.62,0.62c0,0.14-0.04,0.28-0.16,0.4
		c-0.76,0.859-1.2,1.76-1.2,2.54c0,0.739,0.38,1.38,1.36,1.72c1,0.359,3.159,0.62,5.899,0.62c1.9,0,4.101-0.141,6.3-0.46
		c0.021,0,0.04,0,0.061,0c0.32,0,0.62,0.279,0.62,0.6C96.933,17.2,96.772,17.48,96.412,17.54z M94.152,4.68c-0.02,0-0.02,0-0.04,0
		c-1.38-0.06-3.28-0.1-5.22-0.1c-1.96,0-3.82,0-5.521,0.04c-0.42,0-0.62-0.3-0.62-0.62c0-0.28,0.181-0.58,0.58-0.58
		c1.841-0.04,3.601-0.06,5.561-0.06c1.939,0,3.399,0.04,5.26,0.12c0.4,0.02,0.58,0.3,0.58,0.579
		C94.732,4.38,94.553,4.68,94.152,4.68z M96.772,5.34c-0.16,0-0.34-0.08-0.44-0.28c-0.34-0.659-1.22-1.88-1.56-2.319
		c-0.1-0.101-0.14-0.221-0.14-0.32c0-0.3,0.279-0.54,0.56-0.54c0.14,0,0.28,0.061,0.4,0.2c0.439,0.54,1.38,1.9,1.68,2.46
		c0.04,0.1,0.06,0.18,0.06,0.26C97.332,5.12,97.053,5.34,96.772,5.34z M98.872,4.26c-0.18,0-0.34-0.08-0.439-0.279
		c-0.38-0.7-1.24-1.881-1.561-2.301c-0.08-0.12-0.1-0.22-0.1-0.34c0-0.3,0.26-0.54,0.52-0.54c0.141,0,0.28,0.061,0.4,0.22
		c0.5,0.601,1.34,1.841,1.66,2.461c0.06,0.079,0.08,0.18,0.08,0.26C99.433,4.04,99.152,4.26,98.872,4.26z"/>
	<path fill="#F4F4F4" d="M118.213,12.48c-0.06,0-0.16-0.021-0.239-0.04c-1-0.341-1.9-0.681-2.78-0.96
		c-0.46,3.88-1.7,6.439-4.98,7.699c-0.08,0.04-0.14,0.04-0.22,0.04c-0.34,0-0.6-0.319-0.6-0.62c0-0.22,0.119-0.439,0.399-0.56
		c2.92-1.12,3.92-3.44,4.26-6.9c-2.02-0.56-3.739-0.859-5.22-0.899c-0.34,1.58-0.7,3.04-1.2,4.359c-0.8,2.221-1.92,3.4-3.659,3.4
		c-0.021,0-0.04,0-0.061,0c-1.96,0-3.18-1.72-3.18-3.6c0-0.08,0-0.141,0-0.221c0.18-3.68,4.02-4.96,7.16-5.08
		c0.34-1.72,0.64-3.54,0.939-5.319h-5.6c-0.4,0-0.601-0.3-0.601-0.601c0-0.3,0.2-0.6,0.601-0.6h6.279
		c0.421,0,0.601,0.12,0.601,0.479c0,0.08,0,0.16-0.021,0.261c-0.359,2.06-0.68,4-1.04,5.8c1.46,0.06,3.16,0.32,5.101,0.82
		c0.08-1.301,0.08-2.761,0.08-4.341c0-0.399,0.3-0.6,0.62-0.6c0.3,0,0.6,0.2,0.6,0.6c0,1.7-0.04,3.261-0.14,4.66
		c0.979,0.28,2,0.641,3.08,1.04c0.26,0.101,0.399,0.32,0.399,0.521c0,0.02,0,0.02,0,0.04C118.753,12.22,118.553,12.48,118.213,12.48
		z M101.894,14.26c0,0.88,0.42,2.561,1.979,2.561c0.021,0,0.04,0,0.061,0c1.34-0.04,2.079-1.12,2.659-2.7
		c0.42-1.16,0.761-2.48,1.061-3.88C105.193,10.38,102.053,11.38,101.894,14.26z"/>
</g>
</svg>
