<?xml version="1.0" encoding="utf-8"?>
<!-- Generator: Adobe Illustrator 12.0.0, SVG Export Plug-In . SVG Version: 6.00 Build 51448)  -->
<!DOCTYPE svg PUBLIC "-//W3C//DTD SVG 1.1//EN" "http://www.w3.org/Graphics/SVG/1.1/DTD/svg11.dtd" [
	<!ENTITY ns_svg "http://www.w3.org/2000/svg">
	<!ENTITY ns_xlink "http://www.w3.org/1999/xlink">
]>
<svg  version="1.1" id="レイヤー_1" xmlns="&ns_svg;" xmlns:xlink="&ns_xlink;" width="120" height="23" viewBox="0 0 120 23"
	 overflow="visible" enable-background="new 0 0 120 23" xml:space="preserve">
<g>
	<path fill="#F4F4F4" d="M7.292,10.88c-0.1,0.28-0.3,0.42-0.54,0.42c-0.28,0-0.58-0.22-0.58-0.56c0-0.061,0-0.12,0.02-0.181
		c0.5-1.819,0.68-4.54,0.68-4.54c0.02-0.38,0.28-0.539,0.56-0.539c0.28,0,0.58,0.199,0.58,0.579V6.16
		C8.013,6.16,7.833,8.94,7.292,10.88z M12.413,5.22c-0.54,1.181-1.18,2.38-1.72,3.181c-0.2,0.3-0.36,0.359-0.48,0.359
		c-0.1,0-0.18-0.06-0.2-0.04c-0.04,1.04-0.2,2.66-0.36,3.561c0,0,1.46,2.06,2.28,3.859c0.04,0.101,0.06,0.181,0.06,0.261
		c0,0.34-0.3,0.56-0.6,0.56c-0.2,0-0.4-0.1-0.52-0.34c-0.46-1.101-1.1-2.2-1.54-2.84c-0.78,3.52-2,5.56-2,5.56
		c-0.12,0.2-0.3,0.28-0.48,0.28c-0.3,0-0.6-0.24-0.6-0.561c0-0.079,0.04-0.199,0.1-0.3c0,0,2.5-4.22,2.5-10.76V2.32
		c0-0.38,0.28-0.58,0.56-0.58c0.28,0,0.56,0.2,0.56,0.58v5.12c0.46-0.721,1-1.761,1.42-2.681c0.1-0.24,0.3-0.34,0.48-0.34
		c0.3,0,0.58,0.24,0.58,0.561C12.453,5.06,12.453,5.14,12.413,5.22z M23.692,13.88c-0.12,0-0.24-0.02-0.36-0.12
		c0,0-2.42-1.859-3.32-5.12c-0.96,3.521-3.7,5.261-3.7,5.261c-0.1,0.06-0.22,0.1-0.3,0.1c-0.32,0-0.56-0.3-0.56-0.6
		c0-0.181,0.08-0.36,0.28-0.48c0,0,3.06-1.84,3.48-5.9h-1.66c-1.6,5.44-4.48,7.08-4.48,7.08c-0.12,0.08-0.24,0.12-0.34,0.12
		c-0.32,0-0.56-0.279-0.56-0.58c0-0.14,0.06-0.3,0.22-0.439c0,0,1.56-1.061,2.36-2.42c-0.42-0.78-1.2-1.7-1.66-2.181
		c-0.08-0.08-0.14-0.159-0.14-0.3c0-0.06,0.02-0.16,0.1-0.28c-0.04,0.08-0.32,0.4-0.32,0.4c-0.12,0.14-0.28,0.22-0.44,0.22
		c-0.3,0-0.58-0.26-0.58-0.58c0-0.119,0.04-0.239,0.12-0.359c0,0,1.74-2.16,2.56-5.7c0.08-0.3,0.3-0.44,0.54-0.44
		c0.28,0,0.58,0.2,0.58,0.54c0,0.04-0.02,0.101-0.02,0.141c-0.06,0.279-0.14,0.54-0.2,0.819h2.42c0.38,0,0.58,0.16,0.58,0.5
		c0,0.04,0,0.101-0.02,0.141c-0.1,0.78-0.24,1.5-0.42,2.2h1.5c0.02-0.54,0.02-1.12,0.02-1.681c0-1.12-0.02-2.1-0.02-2.1
		c0-0.38,0.28-0.561,0.58-0.561c0.28,0,0.56,0.181,0.56,0.561c0,0,0,0.979,0,2.1c0,0.561,0,1.141,0,1.681h3.12
		c0.38,0,0.58,0.279,0.58,0.56s-0.2,0.56-0.58,0.56h-2.88c0.46,3.721,3.32,5.841,3.32,5.841c0.16,0.14,0.22,0.279,0.22,0.439
		C24.272,13.6,24.013,13.88,23.692,13.88z M14.612,15.06c0,0-0.76,2.561-1.68,4.261c-0.12,0.22-0.3,0.3-0.5,0.3
		c-0.3,0-0.6-0.24-0.6-0.561c0-0.1,0.02-0.199,0.08-0.3c0.88-1.6,1.6-4.02,1.6-4.02c0.08-0.28,0.32-0.4,0.54-0.4
		c0.3,0,0.6,0.2,0.6,0.5C14.652,14.9,14.632,14.98,14.612,15.06z M14.433,6.46c-0.16-0.14-0.18-0.36-0.18-0.58
		c-0.22,0.48-0.76,1.42-0.96,1.8c0,0,0.08-0.04,0.2-0.04c0.12,0,0.28,0.04,0.42,0.181c0.42,0.439,1.04,1.14,1.44,1.819
		c0.22-0.439,0.42-0.939,0.62-1.46C15.533,7.58,14.893,6.9,14.433,6.46z M14.913,4.2c-0.08,0.3-0.3,0.92-0.44,1.2
		c0.12-0.04,0.2-0.08,0.28-0.08c0.12,0,0.22,0.08,0.38,0.239c0.36,0.341,0.88,0.86,1.28,1.341c0.24-0.82,0.46-1.721,0.64-2.7H14.913
		z M16.732,19.34c-0.28,0-0.56-0.2-0.56-0.56c0,0,0-0.28,0-0.4c0-1.479-0.12-3.32-0.12-3.32c0-0.02,0-0.14,0-0.14
		c0-0.4,0.3-0.6,0.6-0.6c0.26,0,0.52,0.18,0.54,0.54c0,0,0.12,2.04,0.12,3.52c0,0.12,0,0.26,0,0.4
		C17.292,19.14,17.013,19.34,16.732,19.34z M20.053,19.34c-0.26,0-0.52-0.16-0.56-0.5c-0.22-1.56-0.66-3.82-0.66-3.82
		c-0.02-0.039-0.02-0.079-0.02-0.119c0-0.36,0.3-0.561,0.6-0.561c0.24,0,0.46,0.141,0.5,0.44c0,0,0.5,2.3,0.72,3.899
		c0,0.04,0,0.061,0,0.12C20.632,19.14,20.333,19.34,20.053,19.34z M22.632,5.08c-0.2,0-0.4-0.1-0.5-0.36
		c-0.36-0.939-0.76-1.5-0.76-1.5c-0.08-0.1-0.1-0.22-0.1-0.319c0-0.301,0.3-0.561,0.6-0.561c0.16,0,0.32,0.08,0.44,0.26
		c0,0,0.44,0.641,0.88,1.7c0.04,0.08,0.04,0.16,0.04,0.24C23.232,4.86,22.933,5.08,22.632,5.08z M23.853,19.6
		c-0.22,0-0.42-0.119-0.52-0.38c-0.66-1.96-1.48-4.12-1.48-4.12c-0.02-0.08-0.04-0.159-0.04-0.22c0-0.32,0.3-0.54,0.6-0.54
		c0.2,0,0.4,0.101,0.5,0.36c0,0,0.8,2.16,1.48,4.16c0.02,0.08,0.04,0.14,0.04,0.22C24.433,19.38,24.132,19.6,23.853,19.6z"/>
	<path fill="#F4F4F4" d="M45.692,19.18c-0.84,0.061-1.66,0.08-2.48,0.08c-0.74,0-1.48-0.02-2.2-0.06
		c-1.68-0.12-2.62-0.74-2.62-2.601c0-0.439,0.1-1.18,0.1-1.699c0-1.2-0.44-1.82-1.24-1.82c-2,0-3.68,1.84-7.74,6.14
		c-0.14,0.141-0.3,0.2-0.44,0.2c-0.34,0-0.64-0.28-0.64-0.6c0-0.12,0.06-0.261,0.16-0.38c2.22-2.46,8.82-8.521,11.62-10.94h-9.12
		c-0.4,0-0.6-0.3-0.6-0.62c0-0.3,0.2-0.6,0.6-0.6h10.7c0.44,0,0.68,0.239,0.68,0.52c0,0.181-0.08,0.38-0.3,0.561
		c0,0-2.62,2.239-5.5,4.84c0.28-0.061,0.56-0.101,0.82-0.101c1.38,0,2.22,0.96,2.22,2.801c0,0.42-0.1,1.14-0.1,1.58
		c0,1.039,0.48,1.439,1.44,1.52c0.68,0.04,1.44,0.08,2.26,0.08c0.76,0,1.58-0.08,2.34-0.1c0.02,0,0.02,0,0.04,0
		c0.36,0,0.58,0.26,0.58,0.579C46.272,18.84,46.072,19.14,45.692,19.18z M41.513,4.38c-0.06,0-0.1,0-0.16-0.02
		c-2.36-0.521-5.34-0.9-8.14-1.16c-0.38-0.04-0.54-0.32-0.54-0.601c0-0.319,0.24-0.619,0.6-0.619c0.02,0,0.04,0,0.06,0
		c2.68,0.22,6.08,0.819,8.24,1.22c0.34,0.06,0.48,0.319,0.48,0.58C42.053,4.08,41.853,4.38,41.513,4.38z"/>
	<path fill="#F4F4F4" d="M66.232,13.34c0,4.04-3.819,6-7.439,6c-2.74-0.02-5.64-1.14-5.64-3.6c0-1.32,1.06-2.46,3.26-2.46
		c1.64,0,4.2,1.359,4.26,4.68c2.28-0.54,4.32-2.08,4.32-4.66c0-3.08-2.82-4.58-5.681-4.58c-1.1,0-2.28,0.221-3.38,0.721
		c-1.3,0.6-2.9,2-4.9,3.739c-0.14,0.12-0.26,0.181-0.4,0.181c-0.32,0-0.6-0.301-0.6-0.641c0-0.16,0.06-0.319,0.22-0.46
		c2.26-1.979,7.439-5.779,10.979-8.68h-8.2c-0.4,0-0.6-0.3-0.6-0.58s0.2-0.58,0.6-0.58h9.9c0.44,0,0.7,0.22,0.7,0.5
		c0,0.16-0.1,0.36-0.32,0.521c-1.62,1.3-3.76,2.92-5.86,4.54c0.82-0.2,1.6-0.301,2.36-0.301c3.36,0,6.38,2.021,6.42,5.601
		C66.232,13.3,66.232,13.32,66.232,13.34z M56.373,14.34c-1.36,0-2,0.62-2,1.38c0,2.141,2.98,2.44,4.38,2.44
		c0.26,0,0.54,0,0.82-0.021C59.533,15.62,57.833,14.34,56.373,14.34z"/>
	<path fill="#F4F4F4" d="M86.612,17.54c-2.239,0.32-4.38,0.46-6.279,0.46c-3,0-5.381-0.32-6.48-0.7c-1.52-0.54-2.24-1.58-2.24-2.8
		c0-1.06,0.561-2.28,1.58-3.42c0.141-0.14,0.28-0.2,0.44-0.2c0.319,0,0.62,0.28,0.62,0.62c0,0.14-0.04,0.28-0.16,0.4
		c-0.76,0.859-1.2,1.76-1.2,2.54c0,0.739,0.38,1.38,1.36,1.72c1,0.359,3.16,0.62,5.899,0.62c1.9,0,4.101-0.141,6.3-0.46
		c0.021,0,0.04,0,0.061,0c0.32,0,0.62,0.279,0.62,0.6C87.133,17.2,86.973,17.48,86.612,17.54z M84.353,4.68c-0.02,0-0.02,0-0.04,0
		c-1.38-0.06-3.28-0.1-5.22-0.1c-1.96,0-3.82,0-5.521,0.04c-0.42,0-0.62-0.3-0.62-0.62c0-0.28,0.181-0.58,0.58-0.58
		c1.841-0.04,3.601-0.06,5.561-0.06c1.939,0,3.399,0.04,5.26,0.12c0.4,0.02,0.58,0.3,0.58,0.579
		C84.933,4.38,84.753,4.68,84.353,4.68z M86.973,5.34c-0.16,0-0.34-0.08-0.44-0.28c-0.34-0.659-1.22-1.88-1.56-2.319
		c-0.1-0.101-0.14-0.221-0.14-0.32c0-0.3,0.279-0.54,0.56-0.54c0.14,0,0.28,0.061,0.4,0.2c0.439,0.54,1.38,1.9,1.68,2.46
		c0.04,0.1,0.06,0.18,0.06,0.26C87.532,5.12,87.253,5.34,86.973,5.34z M89.072,4.26c-0.18,0-0.34-0.08-0.439-0.279
		c-0.38-0.7-1.24-1.881-1.561-2.301c-0.08-0.12-0.1-0.22-0.1-0.34c0-0.3,0.26-0.54,0.52-0.54c0.141,0,0.28,0.061,0.4,0.22
		c0.5,0.601,1.34,1.841,1.66,2.461c0.06,0.079,0.08,0.18,0.08,0.26C89.633,4.04,89.353,4.26,89.072,4.26z"/>
	<path fill="#F4F4F4" d="M110.412,12.48c-0.06,0-0.16-0.021-0.239-0.04c-1-0.341-1.9-0.681-2.78-0.96
		c-0.46,3.88-1.7,6.439-4.98,7.699c-0.08,0.04-0.14,0.04-0.22,0.04c-0.34,0-0.6-0.319-0.6-0.62c0-0.22,0.119-0.439,0.399-0.56
		c2.92-1.12,3.92-3.44,4.26-6.9c-2.02-0.56-3.739-0.859-5.22-0.899c-0.34,1.58-0.7,3.04-1.2,4.359c-0.8,2.221-1.92,3.4-3.659,3.4
		c-0.021,0-0.04,0-0.061,0c-1.96,0-3.18-1.72-3.18-3.6c0-0.08,0-0.141,0-0.221c0.18-3.68,4.02-4.96,7.16-5.08
		c0.34-1.72,0.64-3.54,0.939-5.319h-5.6c-0.4,0-0.601-0.3-0.601-0.601c0-0.3,0.2-0.6,0.601-0.6h6.279
		c0.421,0,0.601,0.12,0.601,0.479c0,0.08,0,0.16-0.021,0.261c-0.359,2.06-0.68,4-1.04,5.8c1.46,0.06,3.16,0.32,5.101,0.82
		c0.08-1.301,0.08-2.761,0.08-4.341c0-0.399,0.3-0.6,0.62-0.6c0.3,0,0.6,0.2,0.6,0.6c0,1.7-0.04,3.261-0.14,4.66
		c0.979,0.28,2,0.641,3.08,1.04c0.26,0.101,0.399,0.32,0.399,0.521c0,0.02,0,0.02,0,0.04C110.952,12.22,110.752,12.48,110.412,12.48
		z M94.093,14.26c0,0.88,0.42,2.561,1.979,2.561c0.021,0,0.04,0,0.061,0c1.34-0.04,2.079-1.12,2.659-2.7
		c0.42-1.16,0.761-2.48,1.061-3.88C97.393,10.38,94.252,11.38,94.093,14.26z"/>
</g>
</svg>
