<?xml version="1.0" encoding="utf-8"?>
<!-- Generator: Adobe Illustrator 12.0.0, SVG Export Plug-In . SVG Version: 6.00 Build 51448)  -->
<!DOCTYPE svg PUBLIC "-//W3C//DTD SVG 1.1//EN" "http://www.w3.org/Graphics/SVG/1.1/DTD/svg11.dtd" [
	<!ENTITY ns_svg "http://www.w3.org/2000/svg">
	<!ENTITY ns_xlink "http://www.w3.org/1999/xlink">
]>
<svg  version="1.1" id="レイヤー_1" xmlns="&ns_svg;" xmlns:xlink="&ns_xlink;" width="120" height="23" viewBox="0 0 120 23"
	 overflow="visible" enable-background="new 0 0 120 23" xml:space="preserve">
<g>
	<path fill="#F4F4F4" d="M27.96,5.778c-1.218,1.322-3.528,2.562-3.528,2.562c-0.105,0.063-0.21,0.084-0.315,0.084
		c-0.336,0-0.567-0.294-0.567-0.608c0-0.189,0.084-0.378,0.294-0.505c0,0,2.121-1.154,3.255-2.352
		c0.126-0.146,0.273-0.188,0.42-0.188c0.315,0,0.609,0.272,0.609,0.608C28.128,5.505,28.065,5.652,27.96,5.778z M29.746,17.874
		c-2.016,1.176-5.439,1.911-5.439,1.911c-0.063,0.021-0.105,0.021-0.147,0.021c-0.357,0-0.567-0.314-0.567-0.608
		c0-0.252,0.147-0.483,0.462-0.567c0,0,3.171-0.672,5.061-1.785c0.126-0.063,0.231-0.084,0.336-0.084
		c0.336,0,0.588,0.315,0.588,0.609C30.04,17.559,29.956,17.748,29.746,17.874z M27.876,3.531c-0.084,0-0.168-0.021-0.273-0.063
		c-1.155-0.546-3.423-1.154-3.423-1.154c-0.294-0.105-0.441-0.336-0.441-0.567c0-0.315,0.231-0.609,0.567-0.609
		c0.063,0,0.126,0,0.21,0.021c0,0,2.394,0.65,3.57,1.239c0.252,0.126,0.357,0.314,0.357,0.524
		C28.443,3.216,28.212,3.531,27.876,3.531z M41.337,8.004c-0.042,0-0.105,0-0.168,0c0,0-4.683-1.176-6.489-3.612
		C33.357,6.366,30.25,7.5,29.326,7.815h10.101c0.399,0,0.609,0.21,0.609,0.588v7.539c0,0.398-0.21,0.608-0.609,0.608H26.217
		c-0.399,0-0.609-0.21-0.609-0.608V8.403c0-0.378,0.21-0.588,0.609-0.588h2.352c-0.147-0.126-0.252-0.315-0.252-0.505
		c0-0.252,0.147-0.482,0.462-0.566c0,0,4.284-1.05,5.187-3.507h-2.058c-0.945,1.05-1.995,1.911-1.995,1.911
		c-0.105,0.104-0.231,0.146-0.357,0.146c-0.315,0-0.588-0.294-0.588-0.63c0-0.147,0.063-0.294,0.21-0.42
		c0,0,2.205-1.785,2.919-3.276c0.105-0.252,0.315-0.356,0.504-0.356c0.315,0,0.63,0.252,0.63,0.608c0,0.084-0.021,0.168-0.063,0.273
		c-0.105,0.188-0.231,0.42-0.357,0.588h8.379c0.42,0,0.651,0.168,0.651,0.441c0,0.126-0.042,0.294-0.147,0.44
		c-0.819,1.281-2.877,2.353-2.877,2.353c-0.105,0.042-0.21,0.063-0.294,0.063c-0.336,0-0.567-0.294-0.567-0.608
		c0-0.21,0.084-0.399,0.336-0.525c0,0,0.819-0.42,1.533-1.008h-4.473c1.071,2.562,6.069,3.611,6.069,3.611
		c0.315,0.063,0.462,0.315,0.462,0.567C41.883,7.71,41.673,8.004,41.337,8.004z M38.838,8.991H26.806v1.26h12.033V8.991z
		 M38.838,11.406H26.806v1.365h12.033V11.406z M38.838,13.926H26.806v1.428h12.033V13.926z M41.442,19.806
		c-0.042,0-0.084,0-0.147-0.021c0,0-3.381-0.735-5.418-1.911c-0.231-0.126-0.315-0.315-0.315-0.483c0-0.314,0.252-0.63,0.588-0.63
		c0.105,0,0.21,0.021,0.336,0.084c1.89,1.113,5.061,1.785,5.061,1.785c0.315,0.084,0.462,0.315,0.462,0.588
		C42.009,19.491,41.799,19.806,41.442,19.806z"/>
	<path fill="#F4F4F4" d="M54.252,12.792c0,0-0.861,3.108-2.457,6.342c-0.126,0.231-0.315,0.336-0.525,0.336
		c-0.315,0-0.63-0.252-0.63-0.588c0-0.084,0.021-0.188,0.084-0.294c1.554-3.087,2.373-6.132,2.373-6.132
		c0.084-0.294,0.315-0.42,0.546-0.42c0.315,0,0.63,0.23,0.63,0.588C54.273,12.666,54.273,12.729,54.252,12.792z M53.833,9.285
		c-0.126,0-0.252-0.042-0.357-0.147c-0.987-0.776-2.436-1.616-2.436-1.616c-0.189-0.126-0.273-0.315-0.273-0.505
		c0-0.314,0.252-0.63,0.567-0.63c0.105,0,0.21,0.021,0.336,0.105c0,0,1.512,0.882,2.541,1.743c0.147,0.126,0.21,0.294,0.21,0.44
		C54.42,8.991,54.147,9.285,53.833,9.285z M54.168,4.329c-0.147,0-0.294-0.063-0.441-0.21c-0.987-1.113-2.121-1.911-2.121-1.911
		c-0.189-0.126-0.273-0.294-0.273-0.462c0-0.336,0.273-0.651,0.609-0.651c0.126,0,0.231,0.042,0.357,0.126
		c0,0,1.218,0.883,2.289,2.079c0.126,0.126,0.168,0.273,0.168,0.399C54.756,4.035,54.483,4.329,54.168,4.329z M69.036,2.838h-4.83
		c-0.084,0.504-0.294,1.281-0.44,1.743h4.199c0.399,0,0.588,0.21,0.588,0.609v6.3c0,0.378-0.188,0.588-0.588,0.588h-3.822v5.25
		c0,1.68-0.336,2.121-1.826,2.121c-0.441,0-0.777,0-1.471-0.105c-0.336-0.063-0.482-0.336-0.482-0.588c0-0.314,0.21-0.63,0.566-0.63
		c0.043,0,0.084,0.021,0.127,0.021c0.461,0.084,0.882,0.084,1.154,0.084c0.735,0,0.756-0.042,0.756-0.903v-5.25h-3.842
		c-0.378,0-0.588-0.21-0.588-0.588v-6.3c0-0.399,0.21-0.609,0.588-0.609h3.402c0.104-0.294,0.336-1.134,0.44-1.743h-5.753v4.284
		c0,7.035-0.882,9.807-1.932,11.844c-0.126,0.231-0.336,0.336-0.525,0.336c-0.315,0-0.63-0.252-0.63-0.588
		c0-0.084,0.021-0.188,0.084-0.272c1.029-1.953,1.827-4.6,1.827-11.319V2.25c0-0.378,0.189-0.588,0.588-0.588h12.411
		c0.399,0,0.588,0.294,0.588,0.588S69.436,2.838,69.036,2.838z M60.846,13.842c-0.608,2.017-2.478,4.348-2.478,4.348
		c-0.126,0.168-0.294,0.23-0.462,0.23c-0.315,0-0.609-0.272-0.609-0.588c0-0.126,0.021-0.252,0.126-0.357
		c0,0,1.743-2.162,2.268-3.969c0.105-0.294,0.336-0.42,0.567-0.42c0.315,0,0.63,0.21,0.63,0.567
		C60.889,13.716,60.867,13.779,60.846,13.842z M67.377,5.736h-7.665v1.911h7.665V5.736z M67.377,8.802h-7.665v2.121h7.665V8.802z
		 M68.889,18.84c-0.168,0-0.356-0.063-0.461-0.272c-1.365-2.059-2.479-4.516-2.479-4.516c-0.042-0.104-0.063-0.21-0.063-0.294
		c0-0.314,0.293-0.546,0.588-0.546c0.209,0,0.42,0.105,0.545,0.336c0,0,1.072,2.395,2.373,4.389
		c0.084,0.105,0.105,0.211,0.105,0.337C69.498,18.588,69.204,18.84,68.889,18.84z"/>
	<path fill="#F4F4F4" d="M85.543,11.238c0,0-1.135,0.546-2.563,1.176v6.741c0,0.378-0.294,0.588-0.588,0.588
		s-0.609-0.21-0.609-0.588v-6.237c-1.028,0.42-2.205,0.882-3.087,1.155c-0.063,0.021-0.126,0.021-0.188,0.021
		c-0.357,0-0.588-0.314-0.588-0.608c0-0.252,0.146-0.483,0.44-0.567c0.987-0.294,2.269-0.819,3.423-1.302v-5.25h-2.142
		c-0.252,1.701-0.525,3.129-0.525,3.129c-0.063,0.314-0.294,0.462-0.546,0.462c-0.294,0-0.63-0.21-0.63-0.609
		c0-0.042,0.021-0.063,0.021-0.104c0,0,0.798-4.074,0.924-6.741c0.021-0.378,0.314-0.566,0.588-0.566
		c0.294,0,0.588,0.188,0.588,0.566c0,0.021,0,0.021,0,0.042c-0.042,0.798-0.104,1.743-0.23,2.646h1.952V1.389
		c0-0.378,0.315-0.588,0.609-0.588s0.588,0.21,0.588,0.588V5.19h1.68c0.399,0,0.589,0.294,0.589,0.588S85.06,6.366,84.66,6.366
		h-1.68v4.746l2.079-0.945c0.084-0.042,0.168-0.063,0.252-0.063c0.336,0,0.588,0.314,0.588,0.63
		C85.899,10.923,85.795,11.112,85.543,11.238z M95.875,14.451c-0.126,3.549-0.609,4.893-3.024,4.893
		c-0.441,0-0.945-0.042-1.512-0.126c-0.357-0.063-0.525-0.336-0.525-0.608c0-0.294,0.21-0.588,0.567-0.588c0.042,0,0.084,0,0.104,0
		c0.399,0.063,0.756,0.084,1.071,0.084c1.764,0,2.037-1.051,2.142-3.696c0.063-1.911,0.126-7.14,0.126-9.618h-1.008
		c-0.903,8.799-6.552,14.07-6.552,14.07c-0.126,0.126-0.252,0.168-0.399,0.168c-0.314,0-0.608-0.315-0.608-0.63
		c0-0.147,0.063-0.315,0.188-0.441c0,0,5.334-4.914,6.174-13.167h-2.036c-1.051,5.943-5.292,10.017-5.292,10.017
		c-0.126,0.105-0.253,0.168-0.379,0.168c-0.336,0-0.63-0.314-0.63-0.65c0-0.147,0.063-0.294,0.189-0.42c0,0,3.822-3.57,4.956-9.114
		h-1.911c-1.05,2.415-2.268,3.864-2.268,3.864c-0.147,0.146-0.295,0.21-0.463,0.21c-0.314,0-0.608-0.273-0.608-0.588
		c0-0.147,0.042-0.273,0.168-0.399c0,0,2.184-2.562,3.087-6.699c0.063-0.314,0.314-0.44,0.546-0.44c0.315,0,0.63,0.21,0.63,0.588
		c0,0.042-0.021,0.084-0.021,0.146c-0.168,0.715-0.399,1.471-0.63,2.143h7.454c0.399,0,0.589,0.168,0.589,0.588
		C96.001,6.282,95.959,12.372,95.875,14.451z"/>
</g>
</svg>
