<?xml version="1.0" encoding="utf-8"?>
<!-- Generator: Adobe Illustrator 12.0.0, SVG Export Plug-In . SVG Version: 6.00 Build 51448)  -->
<!DOCTYPE svg PUBLIC "-//W3C//DTD SVG 1.1//EN" "http://www.w3.org/Graphics/SVG/1.1/DTD/svg11.dtd" [
	<!ENTITY ns_svg "http://www.w3.org/2000/svg">
	<!ENTITY ns_xlink "http://www.w3.org/1999/xlink">
]>
<svg  version="1.1" id="レイヤー_1" xmlns="&ns_svg;" xmlns:xlink="&ns_xlink;" width="120" height="23" viewBox="0 0 120 23"
	 overflow="visible" enable-background="new 0 0 120 23" xml:space="preserve">
<g>
	<path fill="#F4F4F4" d="M26.526,6.86c-1.16,1.26-3.36,2.439-3.36,2.439c-0.1,0.061-0.2,0.08-0.3,0.08c-0.32,0-0.54-0.28-0.54-0.58
		c0-0.18,0.08-0.359,0.28-0.479c0,0,2.02-1.101,3.1-2.24c0.12-0.14,0.26-0.18,0.4-0.18c0.3,0,0.58,0.26,0.58,0.58
		C26.686,6.6,26.626,6.74,26.526,6.86z M28.226,18.38c-1.92,1.12-5.18,1.82-5.18,1.82c-0.06,0.02-0.1,0.02-0.14,0.02
		c-0.34,0-0.54-0.3-0.54-0.58c0-0.239,0.14-0.46,0.44-0.54c0,0,3.02-0.64,4.82-1.699c0.12-0.061,0.22-0.08,0.32-0.08
		c0.32,0,0.56,0.3,0.56,0.58C28.506,18.08,28.426,18.26,28.226,18.38z M26.446,4.72c-0.08,0-0.16-0.02-0.26-0.06
		c-1.1-0.521-3.26-1.101-3.26-1.101c-0.28-0.1-0.42-0.319-0.42-0.54c0-0.3,0.22-0.579,0.54-0.579c0.06,0,0.12,0,0.2,0.02
		c0,0,2.28,0.62,3.4,1.18c0.24,0.12,0.34,0.301,0.34,0.5C26.986,4.42,26.766,4.72,26.446,4.72z M39.266,8.98c-0.04,0-0.1,0-0.16,0
		c0,0-4.46-1.12-6.18-3.44c-1.26,1.88-4.22,2.96-5.1,3.26h9.62c0.38,0,0.58,0.2,0.58,0.561v7.18c0,0.38-0.2,0.58-0.58,0.58h-12.58
		c-0.38,0-0.58-0.2-0.58-0.58V9.36c0-0.36,0.2-0.561,0.58-0.561h2.24c-0.14-0.12-0.24-0.3-0.24-0.479c0-0.24,0.14-0.46,0.44-0.54
		c0,0,4.08-1,4.94-3.34h-1.96c-0.9,1-1.9,1.819-1.9,1.819c-0.1,0.101-0.22,0.141-0.34,0.141c-0.3,0-0.56-0.28-0.56-0.601
		c0-0.14,0.06-0.28,0.2-0.399c0,0,2.1-1.7,2.78-3.12c0.1-0.24,0.3-0.34,0.48-0.34c0.3,0,0.6,0.239,0.6,0.579
		c0,0.08-0.02,0.16-0.06,0.261c-0.1,0.18-0.22,0.399-0.34,0.56h7.98c0.4,0,0.62,0.16,0.62,0.42c0,0.12-0.04,0.28-0.14,0.42
		c-0.78,1.221-2.74,2.24-2.74,2.24c-0.1,0.04-0.2,0.061-0.28,0.061c-0.32,0-0.54-0.28-0.54-0.58c0-0.2,0.08-0.381,0.32-0.5
		c0,0,0.78-0.4,1.46-0.96h-4.26c1.02,2.439,5.78,3.439,5.78,3.439c0.3,0.061,0.44,0.3,0.44,0.54C39.786,8.7,39.586,8.98,39.266,8.98
		z M36.886,9.92h-11.46v1.2h11.46V9.92z M36.886,12.22h-11.46v1.3h11.46V12.22z M36.886,14.62h-11.46v1.36h11.46V14.62z
		 M39.366,20.22c-0.04,0-0.08,0-0.14-0.02c0,0-3.22-0.7-5.16-1.82c-0.22-0.12-0.3-0.3-0.3-0.46c0-0.3,0.24-0.6,0.56-0.6
		c0.1,0,0.2,0.02,0.32,0.08c1.8,1.06,4.82,1.699,4.82,1.699c0.3,0.08,0.44,0.301,0.44,0.561S39.706,20.22,39.366,20.22z"/>
	<path fill="#F4F4F4" d="M54.346,13.54c0,0-0.82,2.96-2.34,6.04c-0.12,0.22-0.3,0.32-0.5,0.32c-0.3,0-0.6-0.24-0.6-0.561
		c0-0.08,0.02-0.18,0.08-0.28c1.48-2.939,2.26-5.84,2.26-5.84c0.08-0.279,0.3-0.399,0.52-0.399c0.3,0,0.6,0.22,0.6,0.56
		C54.366,13.42,54.366,13.48,54.346,13.54z M53.946,10.2c-0.12,0-0.24-0.04-0.34-0.141c-0.94-0.739-2.32-1.54-2.32-1.54
		c-0.18-0.119-0.26-0.3-0.26-0.479c0-0.3,0.24-0.6,0.54-0.6c0.1,0,0.2,0.02,0.32,0.1c0,0,1.44,0.84,2.42,1.66
		c0.14,0.12,0.2,0.28,0.2,0.42C54.506,9.92,54.246,10.2,53.946,10.2z M54.266,5.48c-0.14,0-0.28-0.061-0.42-0.2
		c-0.94-1.061-2.02-1.82-2.02-1.82c-0.18-0.12-0.26-0.28-0.26-0.44c0-0.319,0.26-0.619,0.58-0.619c0.12,0,0.22,0.04,0.34,0.119
		c0,0,1.16,0.841,2.18,1.98c0.12,0.12,0.16,0.26,0.16,0.38C54.826,5.2,54.566,5.48,54.266,5.48z M68.426,4.06h-4.6
		c-0.08,0.48-0.28,1.221-0.42,1.66h4c0.379,0,0.56,0.2,0.56,0.58v6c0,0.36-0.181,0.561-0.56,0.561h-3.641v5
		c0,1.6-0.32,2.02-1.74,2.02c-0.42,0-0.74,0-1.399-0.1c-0.32-0.061-0.46-0.32-0.46-0.561c0-0.3,0.2-0.6,0.539-0.6
		c0.041,0,0.08,0.02,0.121,0.02c0.439,0.08,0.84,0.08,1.1,0.08c0.7,0,0.721-0.04,0.721-0.859v-5h-3.661c-0.36,0-0.56-0.2-0.56-0.561
		v-6c0-0.38,0.2-0.58,0.56-0.58h3.24c0.101-0.279,0.32-1.08,0.421-1.66h-5.48v4.08c0,6.7-0.84,9.341-1.84,11.28
		c-0.12,0.22-0.32,0.32-0.5,0.32c-0.3,0-0.6-0.24-0.6-0.561c0-0.08,0.02-0.18,0.08-0.26c0.98-1.86,1.74-4.38,1.74-10.78V3.5
		c0-0.36,0.18-0.56,0.56-0.56h11.82c0.38,0,0.561,0.279,0.561,0.56S68.806,4.06,68.426,4.06z M60.626,14.54
		c-0.58,1.92-2.36,4.14-2.36,4.14c-0.12,0.16-0.28,0.221-0.44,0.221c-0.3,0-0.58-0.261-0.58-0.561c0-0.12,0.02-0.24,0.12-0.34
		c0,0,1.66-2.06,2.16-3.78c0.1-0.279,0.32-0.399,0.54-0.399c0.3,0,0.6,0.199,0.6,0.54C60.666,14.42,60.646,14.48,60.626,14.54z
		 M66.846,6.82h-7.3V8.64h7.3V6.82z M66.846,9.74h-7.3v2.02h7.3V9.74z M68.285,19.3c-0.159,0-0.34-0.06-0.439-0.26
		c-1.3-1.96-2.359-4.3-2.359-4.3c-0.041-0.101-0.061-0.2-0.061-0.28c0-0.3,0.279-0.52,0.561-0.52c0.199,0,0.399,0.1,0.52,0.319
		c0,0,1.02,2.28,2.26,4.181c0.08,0.1,0.1,0.199,0.1,0.319C68.865,19.06,68.586,19.3,68.285,19.3z"/>
	<path fill="#F4F4F4" d="M86.926,12.06c0,0-1.08,0.521-2.439,1.12v6.42c0,0.36-0.281,0.561-0.561,0.561s-0.58-0.2-0.58-0.561V13.66
		c-0.98,0.399-2.1,0.84-2.939,1.1c-0.061,0.021-0.121,0.021-0.18,0.021c-0.34,0-0.561-0.3-0.561-0.58c0-0.24,0.141-0.46,0.42-0.54
		c0.939-0.28,2.16-0.78,3.26-1.24v-5h-2.039c-0.24,1.62-0.5,2.98-0.5,2.98c-0.061,0.3-0.281,0.439-0.521,0.439
		c-0.279,0-0.6-0.2-0.6-0.58c0-0.04,0.021-0.06,0.021-0.1c0,0,0.76-3.88,0.879-6.42c0.02-0.36,0.301-0.54,0.561-0.54
		c0.279,0,0.561,0.18,0.561,0.54c0,0.02,0,0.02,0,0.04c-0.041,0.76-0.102,1.66-0.221,2.52h1.859V2.68c0-0.359,0.301-0.56,0.58-0.56
		s0.561,0.2,0.561,0.56V6.3h1.6c0.381,0,0.561,0.28,0.561,0.561c0,0.279-0.18,0.56-0.561,0.56h-1.6v4.521l1.98-0.9
		c0.08-0.04,0.16-0.06,0.238-0.06c0.32,0,0.561,0.3,0.561,0.6C87.266,11.76,87.166,11.94,86.926,12.06z M96.766,15.12
		c-0.119,3.38-0.58,4.66-2.879,4.66c-0.42,0-0.9-0.04-1.441-0.12c-0.34-0.061-0.5-0.32-0.5-0.58c0-0.28,0.201-0.561,0.541-0.561
		c0.039,0,0.08,0,0.1,0c0.381,0.061,0.721,0.08,1.02,0.08c1.68,0,1.941-1,2.041-3.52c0.059-1.82,0.119-6.8,0.119-9.16h-0.959
		c-0.861,8.38-6.24,13.4-6.24,13.4c-0.121,0.12-0.24,0.16-0.381,0.16c-0.299,0-0.58-0.301-0.58-0.601c0-0.14,0.061-0.3,0.18-0.42
		c0,0,5.08-4.68,5.881-12.54h-1.939c-1,5.66-5.041,9.54-5.041,9.54c-0.119,0.1-0.24,0.16-0.359,0.16c-0.32,0-0.6-0.3-0.6-0.62
		c0-0.14,0.059-0.28,0.18-0.4c0,0,3.641-3.399,4.721-8.68h-1.82c-1,2.3-2.16,3.68-2.16,3.68c-0.141,0.141-0.281,0.2-0.441,0.2
		c-0.299,0-0.578-0.26-0.578-0.56c0-0.141,0.039-0.26,0.158-0.38c0,0,2.08-2.44,2.941-6.38c0.059-0.301,0.299-0.421,0.52-0.421
		c0.301,0,0.6,0.2,0.6,0.561c0,0.04-0.02,0.08-0.02,0.14c-0.16,0.681-0.381,1.4-0.6,2.04h7.1c0.379,0,0.561,0.16,0.561,0.561
		C96.887,7.34,96.846,13.14,96.766,15.12z"/>
</g>
</svg>
