<?xml version="1.0" encoding="utf-8"?>
<!-- Generator: Adobe Illustrator 12.0.0, SVG Export Plug-In . SVG Version: 6.00 Build 51448)  -->
<!DOCTYPE svg PUBLIC "-//W3C//DTD SVG 1.1//EN" "http://www.w3.org/Graphics/SVG/1.1/DTD/svg11.dtd" [
	<!ENTITY ns_svg "http://www.w3.org/2000/svg">
	<!ENTITY ns_xlink "http://www.w3.org/1999/xlink">
]>
<svg  version="1.1" id="レイヤー_1" xmlns="&ns_svg;" xmlns:xlink="&ns_xlink;" width="120" height="23" viewBox="0 0 120 23"
	 overflow="visible" enable-background="new 0 0 120 23" xml:space="preserve">
<g>
	<path fill="#F4F4F4" d="M20.272,9.94h-2.3v0.279c0.02,0,1.72,1.8,2.64,3.12c0.08,0.101,0.12,0.22,0.12,0.32
		c0,0.32-0.3,0.58-0.6,0.58c-0.18,0-0.34-0.061-0.46-0.24c-0.48-0.7-1.16-1.68-1.7-2.26v7.42c0,0.38-0.28,0.56-0.56,0.56
		c-0.28,0-0.56-0.18-0.56-0.56V11.7c-1.04,2.5-2.74,4.76-2.74,4.76c-0.12,0.16-0.28,0.22-0.44,0.22c-0.3,0-0.6-0.26-0.6-0.58
		c0-0.1,0.04-0.22,0.14-0.34c0,0,2.3-2.88,3.16-5.819h-2.62c-0.38,0-0.56-0.28-0.56-0.58c0-0.28,0.18-0.561,0.56-0.561h3.1V2.08
		c0-0.38,0.28-0.561,0.56-0.561c0.28,0,0.56,0.181,0.56,0.561V8.8h2.3c0.4,0,0.58,0.28,0.58,0.561
		C20.853,9.66,20.672,9.94,20.272,9.94z M15.212,7.84c-0.22,0-0.44-0.12-0.52-0.399c-0.44-1.62-1.1-3.761-1.1-3.761
		c0-0.06-0.02-0.12-0.02-0.18c0-0.32,0.3-0.54,0.6-0.54c0.22,0,0.44,0.12,0.52,0.42c0,0,0.66,2.12,1.1,3.74
		c0.02,0.06,0.02,0.12,0.02,0.18C15.813,7.64,15.513,7.84,15.212,7.84z M19.752,7.5c-0.1,0.24-0.3,0.36-0.52,0.36
		c-0.28,0-0.58-0.221-0.58-0.561c0-0.08,0.02-0.16,0.04-0.24c0,0,0.64-1.479,1.14-3.739c0.06-0.301,0.3-0.44,0.54-0.44
		c0.28,0,0.56,0.2,0.56,0.54c0,0.04,0,0.08,0,0.12C20.413,5.94,19.752,7.5,19.752,7.5z M30.913,19.08h-10.66
		c-0.4,0-0.6-0.28-0.6-0.58c0-0.28,0.2-0.54,0.6-0.54h1.5V2.98c0-0.381,0.18-0.58,0.58-0.58h7.08c0.38,0,0.58,0.199,0.58,0.58V17.96
		h0.92c0.38,0,0.58,0.26,0.58,0.56C31.493,18.8,31.292,19.08,30.913,19.08z M28.813,3.52h-5.9v3.86h5.9V3.52z M28.813,8.52h-5.9
		v4.061h5.9V8.52z M28.813,13.7h-5.9v4.26h5.9V13.7z"/>
	<path fill="#F4F4F4" d="M54.893,19.64c-0.1,0-0.2-0.02-0.32-0.1c0,0-6.18-3.76-8.18-9.06c-1.92,5.46-8.16,9.14-8.16,9.14
		c-0.12,0.08-0.22,0.1-0.34,0.1c-0.34,0-0.6-0.359-0.6-0.7c0-0.18,0.1-0.359,0.3-0.5c0,0,7.66-4.3,8.14-10.619h-7.66
		c-0.4,0-0.6-0.301-0.6-0.601s0.2-0.6,0.6-0.6h7.68V2.22c0-0.399,0.3-0.6,0.6-0.6s0.6,0.2,0.6,0.6V6.7h7.76c0.4,0,0.6,0.3,0.6,0.6
		s-0.2,0.601-0.6,0.601h-7.74c0.5,6.119,8.24,10.52,8.24,10.52c0.22,0.12,0.32,0.3,0.32,0.521
		C55.533,19.24,55.393,19.64,54.893,19.64z"/>
	<path fill="#F4F4F4" d="M77.013,17.54c-2.24,0.32-4.38,0.46-6.28,0.46c-3,0-5.38-0.32-6.48-0.7c-1.52-0.54-2.239-1.58-2.239-2.8
		c0-1.06,0.56-2.28,1.579-3.42c0.141-0.14,0.281-0.2,0.441-0.2c0.319,0,0.619,0.28,0.619,0.62c0,0.14-0.04,0.28-0.16,0.4
		c-0.76,0.859-1.199,1.76-1.199,2.54c0,0.739,0.379,1.38,1.359,1.72c1,0.359,3.16,0.62,5.9,0.62c1.899,0,4.1-0.141,6.3-0.46
		c0.02,0,0.04,0,0.06,0c0.32,0,0.62,0.279,0.62,0.6C77.532,17.2,77.372,17.48,77.013,17.54z M74.753,4.68c-0.021,0-0.021,0-0.04,0
		c-1.381-0.06-3.28-0.1-5.221-0.1c-1.96,0-3.819,0-5.52,0.04c-0.42,0-0.62-0.3-0.62-0.62c0-0.28,0.181-0.58,0.58-0.58
		c1.84-0.04,3.6-0.06,5.56-0.06c1.94,0,3.4,0.04,5.261,0.12c0.399,0.02,0.579,0.3,0.579,0.579C75.332,4.38,75.152,4.68,74.753,4.68z
		 M77.372,5.34c-0.159,0-0.34-0.08-0.439-0.28c-0.34-0.659-1.22-1.88-1.561-2.319c-0.1-0.101-0.14-0.221-0.14-0.32
		c0-0.3,0.28-0.54,0.561-0.54c0.14,0,0.279,0.061,0.399,0.2c0.44,0.54,1.38,1.9,1.68,2.46c0.04,0.1,0.061,0.18,0.061,0.26
		C77.933,5.12,77.652,5.34,77.372,5.34z M79.473,4.26c-0.18,0-0.34-0.08-0.44-0.279c-0.38-0.7-1.239-1.881-1.56-2.301
		c-0.08-0.12-0.101-0.22-0.101-0.34c0-0.3,0.261-0.54,0.521-0.54c0.14,0,0.28,0.061,0.4,0.22c0.5,0.601,1.34,1.841,1.659,2.461
		c0.061,0.079,0.08,0.18,0.08,0.26C80.032,4.04,79.753,4.26,79.473,4.26z"/>
	<path fill="#F4F4F4" d="M102.813,12.48c-0.06,0-0.16-0.021-0.239-0.04c-1-0.341-1.9-0.681-2.78-0.96
		c-0.46,3.88-1.7,6.439-4.98,7.699c-0.08,0.04-0.14,0.04-0.22,0.04c-0.34,0-0.6-0.319-0.6-0.62c0-0.22,0.119-0.439,0.399-0.56
		c2.92-1.12,3.92-3.44,4.26-6.9c-2.02-0.56-3.739-0.859-5.22-0.899c-0.34,1.58-0.7,3.04-1.2,4.359c-0.8,2.221-1.92,3.4-3.659,3.4
		c-0.021,0-0.04,0-0.061,0c-1.96,0-3.18-1.72-3.18-3.6c0-0.08,0-0.141,0-0.221c0.18-3.68,4.02-4.96,7.16-5.08
		c0.34-1.72,0.64-3.54,0.939-5.319h-5.6c-0.4,0-0.601-0.3-0.601-0.601c0-0.3,0.2-0.6,0.601-0.6h6.279
		c0.421,0,0.601,0.12,0.601,0.479c0,0.08,0,0.16-0.021,0.261c-0.359,2.06-0.68,4-1.04,5.8c1.46,0.06,3.16,0.32,5.101,0.82
		c0.08-1.301,0.08-2.761,0.08-4.341c0-0.399,0.3-0.6,0.62-0.6c0.3,0,0.6,0.2,0.6,0.6c0,1.7-0.04,3.261-0.14,4.66
		c0.979,0.28,2,0.641,3.08,1.04c0.26,0.101,0.399,0.32,0.399,0.521c0,0.02,0,0.02,0,0.04C103.353,12.22,103.152,12.48,102.813,12.48
		z M86.493,14.26c0,0.88,0.42,2.561,1.979,2.561c0.021,0,0.04,0,0.061,0c1.34-0.04,2.079-1.12,2.659-2.7
		c0.42-1.16,0.761-2.48,1.061-3.88C89.793,10.38,86.652,11.38,86.493,14.26z"/>
</g>
</svg>
