<?xml version="1.0" encoding="utf-8"?>
<!-- Generator: Adobe Illustrator 12.0.0, SVG Export Plug-In . SVG Version: 6.00 Build 51448)  -->
<!DOCTYPE svg PUBLIC "-//W3C//DTD SVG 1.1//EN" "http://www.w3.org/Graphics/SVG/1.1/DTD/svg11.dtd" [
	<!ENTITY ns_svg "http://www.w3.org/2000/svg">
	<!ENTITY ns_xlink "http://www.w3.org/1999/xlink">
]>
<svg  version="1.1" id="レイヤー_1" xmlns="&ns_svg;" xmlns:xlink="&ns_xlink;" width="120" height="23" viewBox="0 0 120 23"
	 overflow="visible" enable-background="new 0 0 120 23" xml:space="preserve">
<g>
	<path fill="#F4F4F4" d="M21.893,5.786c-0.08,0-0.16-0.021-0.26-0.061c0,0-1.06-0.479-2.36-1.18c0.16,0.101,0.2,0.32,0.2,0.5v4.86
		c0,0.38-0.2,0.58-0.6,0.58h-10.9c-0.38,0-0.58-0.2-0.58-0.58v-4.86c0-0.399,0.2-0.6,0.58-0.6h11.1c-1.74-0.96-4.06-2.5-5.76-4.261
		c-3.14,3.221-8.1,5.601-8.1,5.601c-0.1,0.04-0.2,0.06-0.28,0.06c-0.34,0-0.6-0.319-0.6-0.62c0-0.199,0.1-0.399,0.32-0.5
		c0,0,5.18-2.46,8.14-5.68c0.08-0.1,0.28-0.2,0.42-0.2h0.2c0.14,0,0.34,0.101,0.44,0.2c2.92,3.32,8.24,5.58,8.24,5.58
		c0.26,0.1,0.36,0.32,0.36,0.521C22.453,5.466,22.212,5.786,21.893,5.786z M21.092-1.174c-0.3,0-0.6-0.2-0.6-0.58v-2.061H6.152
		v2.061c0,0.38-0.3,0.58-0.6,0.58c-0.28,0-0.58-0.2-0.58-0.58v-2.64c0-0.4,0.2-0.58,0.58-0.58h7.18v-1.4c0-0.38,0.28-0.58,0.58-0.58
		c0.28,0,0.58,0.2,0.58,0.58v1.4h7.2c0.38,0,0.58,0.18,0.58,0.58v2.64C21.672-1.374,21.373-1.174,21.092-1.174z M10.893-1.714
		c-1.92,1.42-4.64,2.58-4.64,2.58c-0.08,0.04-0.16,0.04-0.24,0.04c-0.34,0-0.58-0.32-0.58-0.62c0-0.22,0.12-0.42,0.36-0.521
		c0,0,2.6-1.08,4.44-2.42c0.12-0.08,0.22-0.12,0.34-0.12c0.32,0,0.56,0.28,0.56,0.601C11.132-2.014,11.072-1.854,10.893-1.714z
		 M18.292,5.626h-9.72v3.72h9.72V5.626z M20.473,1.026c-0.08,0-0.18-0.04-0.28-0.08c0,0-2.68-1.7-4.92-2.761
		c-0.24-0.119-0.32-0.3-0.32-0.5c0-0.319,0.24-0.64,0.58-0.64c0.08,0,0.18,0.04,0.28,0.08c2.28,1.021,4.96,2.8,4.96,2.8
		c0.22,0.12,0.3,0.3,0.3,0.48C21.072,0.706,20.813,1.026,20.473,1.026z"/>
	<path fill="#F4F4F4" d="M41.933,6.046c-0.06,0-0.14,0-0.2-0.02c0,0-0.16-0.061-0.28-0.101v4.26c0,0.381-0.2,0.58-0.56,0.58h-6.14
		c-0.36,0-0.56-0.199-0.56-0.58v-4.92c0-0.359,0.2-0.56,0.56-0.56h3.24c-1.48-0.54-3.1-1.38-3.78-2.3h-2.36
		c-1.04,0.979-2.36,1.779-3.52,2.3h3.58c0.36,0,0.56,0.2,0.56,0.56v4.92c0,0.381-0.2,0.58-0.56,0.58h-5.94
		c-0.38,0-0.56-0.199-0.56-0.58v-4.22c-0.22,0.061-0.5,0.141-0.5,0.141c-0.06,0.02-0.12,0.04-0.18,0.04
		c-0.32,0-0.52-0.301-0.52-0.58c0-0.24,0.14-0.48,0.42-0.54c0,0,3.1-0.761,5.58-2.62h-5.34c-0.38,0-0.56-0.28-0.56-0.561
		c0-0.3,0.18-0.58,0.56-0.58h6.54c0.58-0.58,1.04-1.239,1.4-1.979c0.1-0.24,0.3-0.34,0.48-0.34c0.3,0,0.58,0.22,0.58,0.54
		c0,0.08-0.02,0.18-0.06,0.26c-0.24,0.54-0.56,1.06-0.92,1.52h8.68c0.38,0,0.58,0.28,0.58,0.58c0,0.28-0.2,0.561-0.58,0.561h-5.86
		c2.1,1.46,6.3,2.52,6.3,2.52c0.28,0.061,0.42,0.3,0.42,0.54C42.433,5.746,42.232,6.046,41.933,6.046z M32.072-0.534
		c0,0.34-0.2,0.521-0.56,0.521h-5.62c-0.38,0-0.56-0.2-0.56-0.58v-4.98c0-0.359,0.18-0.56,0.56-0.56h5.62c0.38,0,0.56,0.2,0.56,0.56
		v4.98C32.072-0.574,32.072-0.554,32.072-0.534z M30.953-5.034h-4.5v3.92h4.5V-5.034z M31.333,5.806h-4.8v3.86l4.8,0.02V5.806z
		 M40.853-0.014h-5.82c-0.38,0-0.56-0.2-0.56-0.58v-4.98c0-0.359,0.18-0.56,0.56-0.56h5.82c0.38,0,0.56,0.2,0.56,0.56v4.98
		C41.413-0.214,41.232-0.014,40.853-0.014z M40.333,5.806h-5v3.86l5,0.02V5.806z M40.292-5.034h-4.7v3.92h4.7V-5.034z"/>
	<path fill="#F4F4F4" d="M60.532,3.806c-0.26,1.761-0.58,2.48-2.6,2.48c-0.44,0-0.94-0.04-1.54-0.101
		c-0.36-0.039-0.54-0.319-0.54-0.6c0-0.3,0.2-0.6,0.58-0.6c0.04,0,0.06,0,0.08,0c0.52,0.04,0.939,0.08,1.28,0.08
		c1.119,0,1.38-0.341,1.539-1.42c0.2-1.381,0.261-5.66,0.261-7.261l-11.32-0.02c-1.44,2.14-3.1,3.66-3.1,3.66
		c-0.14,0.12-0.28,0.159-0.4,0.159c-0.34,0-0.62-0.3-0.62-0.619c0-0.16,0.06-0.32,0.2-0.44c0,0,2.82-2.62,4.2-5.64
		c0.1-0.261,0.3-0.36,0.52-0.36c0.3,0,0.62,0.24,0.62,0.6c0,0.08,0,0.16-0.06,0.261c-0.18,0.399-0.38,0.8-0.6,1.199h11.16
		c0.4,0,0.601,0.181,0.601,0.561c0,0.02,0,0.02,0,0.04C60.793-4.214,60.793,2.066,60.532,3.806z M57.513,10.566
		c-0.48,0.04-2.92,0.04-3.94,0.04c-0.18,0-0.34,0-0.52,0c-6.66,0-6.8-0.04-6.8-3.101v-3.68c0-0.4,0.2-0.601,0.62-0.601h7.12v-3.34
		h-6.62c-0.4,0-0.6-0.3-0.6-0.6c0-0.32,0.2-0.62,0.6-0.62h7.22c0.42,0,0.62,0.2,0.62,0.62v4.54c0,0.42-0.2,0.6-0.62,0.6h-7.12v3.08
		c0,1.74,0.22,1.9,3.48,1.9c0.72,0,1.58,0.02,2.62,0.02c0.7,0,1.34-0.02,1.92-0.02c4.14,0,5.26-0.16,5.339-2.601
		c0.021-0.399,0.301-0.6,0.601-0.6s0.62,0.2,0.62,0.6c0,0,0,0.021,0,0.04C61.933,9.446,61.112,10.306,57.513,10.566z"/>
	<path fill="#F4F4F4" d="M81.893,4.186h-7.199c0.62,1.2,1.319,2.181,2.34,3.021c0.399-0.24,1.8-1.021,3.2-2.16
		c0.119-0.1,0.239-0.14,0.34-0.14c0.319,0,0.58,0.3,0.58,0.6c0,0.16-0.061,0.3-0.221,0.44c-1.14,0.899-2.279,1.62-2.939,2.02
		c1.96,1.36,4,2.101,4,2.101c0.24,0.1,0.34,0.3,0.34,0.479c0,0.3-0.24,0.62-0.56,0.62c-0.08,0-0.16-0.02-0.24-0.06
		c-3.7-1.54-6.58-3.44-8.061-6.921h-0.319c-0.84,0.641-1.801,1.32-2.761,1.82v3.44c2.32-0.36,3.7-0.721,3.7-0.721
		c0.04,0,0.101,0,0.141,0c0.34,0,0.56,0.28,0.56,0.58c0,0.221-0.12,0.42-0.42,0.5c0,0-3.44,0.9-8.58,1.28c-0.02,0-0.04,0-0.06,0
		c-0.36,0-0.561-0.28-0.561-0.56c0-0.261,0.18-0.54,0.54-0.561c1.32-0.1,2.48-0.24,3.54-0.359v-3.08c-2.34,1.04-4.439,1.6-4.439,1.6
		c-0.061,0.021-0.141,0.04-0.2,0.04c-0.3,0-0.521-0.3-0.521-0.6c0-0.24,0.12-0.46,0.42-0.54c0,0,3.9-1.021,6.88-2.841h-6.699
		c-0.38,0-0.561-0.279-0.561-0.579c0-0.28,0.181-0.561,0.561-0.561h8.06V2.106c0-0.381,0.28-0.561,0.561-0.561
		c0.279,0,0.56,0.18,0.56,0.561v0.939h8.02c0.381,0,0.561,0.28,0.561,0.561C82.453,3.906,82.273,4.186,81.893,4.186z M69.093,2.366
		c-0.279,0-0.56-0.181-0.56-0.561v-2.56c-0.72,0.32-2.28,1.02-3.521,1.4c-0.06,0.02-0.12,0.02-0.18,0.02
		c-0.34,0-0.54-0.28-0.54-0.58c0-0.22,0.12-0.439,0.4-0.54c1.58-0.46,3.84-1.54,3.84-1.56v-4.301c0-0.38,0.28-0.56,0.56-0.56
		c0.28,0,0.561,0.18,0.561,0.56v8.12C69.653,2.186,69.373,2.366,69.093,2.366z M67.373-3.134c-0.18,0-0.36-0.08-0.48-0.28
		c-0.279-0.439-1.699-1.66-1.699-1.66c-0.141-0.14-0.181-0.279-0.181-0.42c0-0.32,0.261-0.62,0.54-0.62
		c0.141,0,0.261,0.061,0.38,0.181c0,0,1.62,1.42,1.94,1.939c0.06,0.101,0.08,0.22,0.08,0.32C67.953-3.374,67.673-3.134,67.373-3.134
		z M81.933-3.474h-4.899v3.659h4.22c0.38,0,0.561,0.301,0.561,0.58c0,0.28-0.181,0.561-0.561,0.561h-9.66
		c-0.38,0-0.56-0.28-0.56-0.561c0-0.279,0.18-0.58,0.56-0.58h4.3v-3.659h-4.68c-0.38,0-0.58-0.28-0.58-0.561
		c0-0.3,0.2-0.58,0.58-0.58h4.68v-1.7c0-0.38,0.28-0.56,0.561-0.56s0.58,0.18,0.58,0.56v1.7h4.899c0.381,0,0.561,0.28,0.561,0.58
		C82.493-3.754,82.313-3.474,81.933-3.474z"/>
	<path fill="#F4F4F4" d="M19.873,15.206c-0.32,0-0.62-0.06-0.9-0.18c-0.96,7.52-5.46,12.319-11.34,14.08
		c-0.08,0.02-0.14,0.04-0.2,0.04c-0.34,0-0.54-0.301-0.54-0.601c0-0.24,0.14-0.5,0.46-0.6c4.9-1.48,9.92-5.9,10.5-13.8h-13.1
		c-0.4,0-0.6-0.301-0.6-0.601s0.2-0.6,0.6-0.6h12.78c0-0.04,0-0.08,0-0.101c0-1.3,1.06-2.3,2.34-2.3c1.28,0,2.32,1.04,2.32,2.32
		C22.193,14.166,21.153,15.206,19.873,15.206z M19.873,11.506c-0.78,0-1.38,0.601-1.38,1.36c0,0.78,0.6,1.38,1.38,1.38
		c0.76,0,1.36-0.6,1.36-1.38C21.233,12.106,20.633,11.506,19.873,11.506z"/>
	<path fill="#F4F4F4" d="M27.233,29.106c-0.02,0-0.04,0-0.08,0c-0.36,0-0.58-0.301-0.58-0.62c0-0.28,0.18-0.561,0.54-0.601
		c6.26-0.52,11-3.88,11.7-9.16h-14.24c-0.4,0-0.6-0.3-0.6-0.6c0-0.32,0.2-0.62,0.6-0.62h14.92c0.38,0,0.6,0.2,0.6,0.58
		c0,0.04,0,0.061,0,0.1C39.493,24.926,33.893,28.506,27.233,29.106z M38.473,14.146h-12.68c-0.4,0-0.6-0.301-0.6-0.601
		s0.2-0.6,0.6-0.6h12.68c0.4,0,0.6,0.3,0.6,0.6S38.873,14.146,38.473,14.146z"/>
	<path fill="#F4F4F4" d="M59.013,29.226c-0.16,0-0.32-0.079-0.44-0.22c-1.54-1.88-4.6-5.04-6.12-6.439c-2.46,3-5.46,5.34-8.2,6.479
		c-0.1,0.04-0.18,0.061-0.26,0.061c-0.34,0-0.58-0.32-0.58-0.641c0-0.22,0.1-0.42,0.36-0.54c4.9-2.16,9.98-7.359,11.86-13.779
		h-10.22c-0.4,0-0.6-0.301-0.6-0.601s0.2-0.6,0.6-0.6h11.02c0.42,0,0.62,0.18,0.62,0.5c0,0.08-0.021,0.16-0.04,0.26
		c-0.64,2.8-2.04,5.54-3.84,7.94c2.06,1.8,5,4.979,6.32,6.6c0.1,0.12,0.14,0.24,0.14,0.38
		C59.633,28.946,59.333,29.226,59.013,29.226z"/>
	<path fill="#F4F4F4" d="M79.353,20.126h-6.779c-0.181,4.96-3.42,8.06-7.76,9.04c-0.04,0.02-0.101,0.02-0.141,0.02
		c-0.34,0-0.6-0.319-0.6-0.619c0-0.261,0.14-0.521,0.479-0.601c3.62-0.72,6.62-3.42,6.82-7.84h-8.06c-0.4,0-0.601-0.3-0.601-0.6
		c0-0.301,0.2-0.601,0.601-0.601h8.06v-4.64c-2.54,0.34-4.78,0.56-6.9,0.62c-0.02,0-0.02,0-0.04,0c-0.38,0-0.58-0.28-0.58-0.58
		s0.2-0.58,0.58-0.601c3.58-0.159,8.66-0.779,12.44-1.68c0.06-0.02,0.1-0.02,0.16-0.02c0.359,0,0.64,0.3,0.64,0.64
		c0,0.22-0.14,0.44-0.439,0.52c-1.381,0.36-3,0.681-4.66,0.921v4.819h6.779c0.4,0,0.601,0.3,0.601,0.601
		C79.953,19.826,79.753,20.126,79.353,20.126z"/>
	<path fill="#F4F4F4" d="M85.254,20.866c0,0.34-0.28,0.54-0.561,0.54c-0.26,0-0.5-0.141-0.56-0.48c-0.2-1.18-0.86-3.779-1.16-4.859
		c-0.021-0.061-0.021-0.12-0.021-0.16c0-0.36,0.301-0.561,0.58-0.561c0.221,0,0.46,0.12,0.54,0.42c0.32,1.16,1,3.681,1.181,5
		C85.254,20.806,85.254,20.826,85.254,20.866z M86.094,29.186c-0.04,0-0.101,0.021-0.141,0.021c-0.34,0-0.5-0.28-0.5-0.58
		c0-0.26,0.141-0.52,0.46-0.58c5.961-1.32,9.521-5.399,9.761-12.08c0.02-0.359,0.3-0.54,0.58-0.54c0.319,0,0.58,0.26,0.58,0.58
		C96.674,23.906,91.834,28.046,86.094,29.186z M90.294,20.426c0,0.32-0.28,0.58-0.58,0.58c-0.261,0-0.521-0.16-0.561-0.52
		c-0.12-1.261-0.64-3.84-0.92-4.94c-0.02-0.06-0.02-0.1-0.02-0.14c0-0.34,0.3-0.561,0.6-0.561c0.24,0,0.46,0.141,0.54,0.44
		c0.26,1.2,0.86,3.939,0.94,5.1C90.294,20.406,90.294,20.406,90.294,20.426z"/>
	<path fill="#F4F4F4" d="M102.733,29.146c-0.061,0.02-0.12,0.02-0.181,0.02c-0.319,0-0.58-0.3-0.58-0.6c0-0.24,0.141-0.5,0.46-0.58
		c5.98-1.58,10.74-5.86,11.841-12.96h-8.221c-1.279,1.88-3.02,3.739-4.84,5.06c-0.12,0.08-0.24,0.12-0.36,0.12
		c-0.319,0-0.6-0.3-0.6-0.62c0-0.18,0.08-0.34,0.26-0.479c2.58-1.86,4.82-4.58,6.04-7.341c0.12-0.26,0.34-0.38,0.561-0.38
		c0.3,0,0.62,0.221,0.62,0.561c0,0.08-0.021,0.16-0.061,0.26c-0.24,0.52-0.52,1.06-0.84,1.62h8.16c0.439,0,0.62,0.22,0.62,0.52
		c0,0.061-0.021,0.101-0.021,0.16C114.473,22.646,109.313,27.466,102.733,29.146z"/>
</g>
</svg>
