<?xml version="1.0" encoding="utf-8"?>
<!-- Generator: Adobe Illustrator 12.0.0, SVG Export Plug-In . SVG Version: 6.00 Build 51448)  -->
<!DOCTYPE svg PUBLIC "-//W3C//DTD SVG 1.1//EN" "http://www.w3.org/Graphics/SVG/1.1/DTD/svg11.dtd" [
	<!ENTITY ns_svg "http://www.w3.org/2000/svg">
	<!ENTITY ns_xlink "http://www.w3.org/1999/xlink">
]>
<svg  version="1.1" id="レイヤー_1" xmlns="&ns_svg;" xmlns:xlink="&ns_xlink;" width="120" height="23" viewBox="0 0 120 23"
	 overflow="visible" enable-background="new 0 0 120 23" xml:space="preserve">
<g>
	<path fill="#F4F4F4" d="M7.968,14.314c-0.061,0-0.122-0.02-0.198-0.058c0,0-0.807-0.456-1.797-1.121
		c0.122,0.096,0.152,0.305,0.152,0.476v4.616c0,0.361-0.152,0.552-0.457,0.552h-8.302c-0.29,0-0.442-0.19-0.442-0.552v-4.616
		c0-0.38,0.152-0.57,0.442-0.57H5.82c-1.325-0.912-3.092-2.375-4.387-4.047c-2.392,3.059-6.169,5.32-6.169,5.32
		c-0.076,0.037-0.152,0.057-0.213,0.057c-0.259,0-0.457-0.304-0.457-0.589c0-0.19,0.076-0.38,0.244-0.476c0,0,3.945-2.337,6.2-5.396
		c0.061-0.095,0.213-0.19,0.32-0.19h0.152c0.107,0,0.259,0.095,0.335,0.19c2.224,3.154,6.276,5.301,6.276,5.301
		c0.198,0.095,0.274,0.304,0.274,0.494C8.395,14.01,8.212,14.314,7.968,14.314z M7.359,7.702c-0.229,0-0.457-0.19-0.457-0.551V5.194
		H-4.02v1.957c0,0.361-0.229,0.551-0.457,0.551c-0.213,0-0.442-0.19-0.442-0.551V4.643c0-0.38,0.152-0.551,0.442-0.551h5.469v-1.33
		c0-0.361,0.213-0.551,0.441-0.551c0.213,0,0.442,0.19,0.442,0.551v1.33h5.484c0.29,0,0.442,0.171,0.442,0.551v2.508
		C7.801,7.512,7.572,7.702,7.359,7.702z M-0.41,7.189C-1.872,8.538-3.944,9.64-3.944,9.64c-0.061,0.038-0.122,0.038-0.183,0.038
		c-0.259,0-0.441-0.304-0.441-0.589c0-0.209,0.091-0.399,0.274-0.494c0,0,1.98-1.026,3.382-2.299
		c0.091-0.076,0.167-0.114,0.259-0.114c0.244,0,0.427,0.266,0.427,0.57C-0.227,6.904-0.273,7.056-0.41,7.189z M5.227,14.162h-7.403
		v3.534h7.403V14.162z M6.887,9.792c-0.061,0-0.137-0.038-0.213-0.076c0,0-2.041-1.615-3.747-2.622
		C2.743,6.98,2.683,6.809,2.683,6.619c0-0.304,0.183-0.608,0.441-0.608c0.061,0,0.137,0.038,0.213,0.076
		c1.737,0.969,3.778,2.66,3.778,2.66c0.167,0.114,0.229,0.285,0.229,0.456C7.344,9.488,7.146,9.792,6.887,9.792z"/>
	<path fill="#F4F4F4" d="M21.708,14.561c-0.045,0-0.106,0-0.152-0.019c0,0-0.122-0.057-0.213-0.095v4.047
		c0,0.361-0.152,0.551-0.427,0.551H16.24c-0.274,0-0.427-0.189-0.427-0.551V13.82c0-0.343,0.152-0.532,0.427-0.532h2.468
		c-1.127-0.513-2.361-1.311-2.879-2.185h-1.797c-0.792,0.931-1.797,1.691-2.681,2.185h2.727c0.274,0,0.426,0.189,0.426,0.532v4.674
		c0,0.361-0.152,0.551-0.426,0.551H9.553c-0.29,0-0.427-0.189-0.427-0.551v-4.009c-0.167,0.057-0.38,0.133-0.38,0.133
		c-0.046,0.019-0.092,0.038-0.137,0.038c-0.244,0-0.396-0.285-0.396-0.551c0-0.229,0.106-0.456,0.32-0.514
		c0,0,2.361-0.722,4.25-2.489H8.715c-0.29,0-0.426-0.266-0.426-0.532c0-0.285,0.137-0.551,0.426-0.551h4.981
		c0.441-0.551,0.792-1.178,1.066-1.881c0.076-0.228,0.228-0.323,0.365-0.323c0.229,0,0.442,0.209,0.442,0.513
		c0,0.076-0.015,0.171-0.046,0.247c-0.183,0.513-0.426,1.007-0.701,1.444h6.611c0.29,0,0.442,0.266,0.442,0.551
		c0,0.266-0.152,0.532-0.442,0.532h-4.463c1.6,1.387,4.798,2.394,4.798,2.394c0.213,0.057,0.32,0.285,0.32,0.513
		C22.089,14.276,21.937,14.561,21.708,14.561z M14.199,8.31c0,0.323-0.152,0.494-0.426,0.494H9.492c-0.29,0-0.426-0.19-0.426-0.551
		V3.522c0-0.342,0.137-0.532,0.426-0.532h4.281c0.289,0,0.426,0.19,0.426,0.532v4.731C14.199,8.272,14.199,8.291,14.199,8.31z
		 M13.346,4.035H9.918v3.724h3.427V4.035z M13.635,14.333H9.979V18l3.656,0.019V14.333z M20.886,8.804h-4.433
		c-0.289,0-0.426-0.19-0.426-0.551V3.522c0-0.342,0.137-0.532,0.426-0.532h4.433c0.29,0,0.426,0.19,0.426,0.532v4.731
		C21.313,8.614,21.176,8.804,20.886,8.804z M20.49,14.333h-3.809V18l3.809,0.019V14.333z M20.459,4.035h-3.58v3.724h3.58V4.035z"/>
	<path fill="#F4F4F4" d="M34.352,12.433c-0.198,1.673-0.442,2.356-1.98,2.356c-0.335,0-0.716-0.038-1.173-0.095
		c-0.274-0.038-0.412-0.305-0.412-0.57c0-0.285,0.152-0.57,0.442-0.57c0.031,0,0.046,0,0.061,0c0.396,0.038,0.716,0.076,0.975,0.076
		c0.853,0,1.051-0.323,1.173-1.349c0.152-1.312,0.198-5.377,0.198-6.897l-8.622-0.019c-1.097,2.033-2.361,3.477-2.361,3.477
		c-0.106,0.114-0.213,0.152-0.305,0.152c-0.259,0-0.472-0.285-0.472-0.589c0-0.152,0.046-0.304,0.152-0.418
		c0,0,2.148-2.489,3.199-5.358c0.076-0.247,0.229-0.342,0.396-0.342c0.229,0,0.472,0.228,0.472,0.57c0,0.076,0,0.152-0.046,0.247
		c-0.137,0.38-0.29,0.76-0.457,1.14h8.5c0.305,0,0.457,0.171,0.457,0.532c0,0.019,0,0.019,0,0.038
		C34.55,4.814,34.55,10.78,34.352,12.433z M32.052,18.855c-0.366,0.037-2.224,0.037-3.001,0.037c-0.137,0-0.259,0-0.396,0
		c-5.073,0-5.179-0.037-5.179-2.944v-3.496c0-0.38,0.152-0.57,0.472-0.57h5.423V8.709h-5.042c-0.305,0-0.457-0.285-0.457-0.57
		c0-0.304,0.152-0.589,0.457-0.589h5.499c0.32,0,0.472,0.19,0.472,0.589v4.313c0,0.398-0.152,0.569-0.472,0.569h-5.423v2.927
		c0,1.652,0.167,1.805,2.65,1.805c0.548,0,1.204,0.02,1.996,0.02c0.533,0,1.021-0.02,1.462-0.02c3.153,0,4.006-0.152,4.067-2.47
		c0.015-0.38,0.229-0.57,0.457-0.57c0.229,0,0.473,0.19,0.473,0.57c0,0,0,0.019,0,0.038C35.418,17.791,34.793,18.608,32.052,18.855z
		"/>
	<path fill="#F4F4F4" d="M49.098,12.794h-5.484c0.472,1.14,1.005,2.071,1.782,2.869c0.305-0.229,1.371-0.969,2.438-2.052
		c0.091-0.096,0.183-0.134,0.259-0.134c0.244,0,0.442,0.285,0.442,0.57c0,0.152-0.046,0.285-0.167,0.418
		c-0.869,0.855-1.737,1.539-2.239,1.919c1.493,1.292,3.046,1.995,3.046,1.995c0.183,0.095,0.259,0.285,0.259,0.456
		c0,0.285-0.183,0.589-0.426,0.589c-0.061,0-0.122-0.019-0.183-0.057c-2.818-1.463-5.011-3.269-6.139-6.574h-0.244
		c-0.64,0.608-1.371,1.254-2.102,1.729v3.268c1.767-0.342,2.818-0.684,2.818-0.684c0.031,0,0.076,0,0.107,0
		c0.259,0,0.426,0.266,0.426,0.551c0,0.209-0.091,0.398-0.32,0.475c0,0-2.62,0.855-6.535,1.216c-0.015,0-0.03,0-0.045,0
		c-0.274,0-0.427-0.266-0.427-0.531c0-0.247,0.137-0.514,0.411-0.532c1.005-0.095,1.889-0.229,2.696-0.342v-2.927
		c-1.782,0.988-3.381,1.521-3.381,1.521c-0.046,0.019-0.107,0.038-0.152,0.038c-0.229,0-0.396-0.285-0.396-0.57
		c0-0.228,0.092-0.437,0.32-0.513c0,0,2.97-0.969,5.24-2.698h-5.103c-0.289,0-0.426-0.266-0.426-0.551
		c0-0.266,0.137-0.532,0.426-0.532h6.139v-0.893c0-0.361,0.213-0.532,0.426-0.532c0.213,0,0.427,0.171,0.427,0.532v0.893h6.108
		c0.29,0,0.427,0.266,0.427,0.532C49.524,12.528,49.387,12.794,49.098,12.794z M39.349,11.065c-0.213,0-0.427-0.171-0.427-0.532
		V8.101c-0.548,0.304-1.736,0.969-2.681,1.33C36.195,9.45,36.149,9.45,36.104,9.45c-0.259,0-0.412-0.266-0.412-0.551
		c0-0.209,0.092-0.418,0.305-0.513c1.204-0.437,2.925-1.463,2.925-1.482V2.819c0-0.361,0.213-0.532,0.427-0.532
		s0.426,0.171,0.426,0.532v7.714C39.775,10.894,39.562,11.065,39.349,11.065z M38.039,5.84c-0.137,0-0.274-0.076-0.366-0.266
		c-0.213-0.418-1.295-1.577-1.295-1.577c-0.106-0.133-0.137-0.266-0.137-0.399c0-0.304,0.198-0.589,0.411-0.589
		c0.106,0,0.198,0.057,0.29,0.171c0,0,1.234,1.349,1.478,1.843c0.045,0.095,0.061,0.209,0.061,0.304
		C38.48,5.612,38.267,5.84,38.039,5.84z M49.128,5.517h-3.732v3.477h3.214c0.289,0,0.426,0.285,0.426,0.551
		s-0.137,0.532-0.426,0.532h-7.358c-0.289,0-0.426-0.266-0.426-0.532s0.137-0.551,0.426-0.551h3.275V5.517h-3.564
		c-0.29,0-0.442-0.266-0.442-0.532c0-0.285,0.152-0.551,0.442-0.551h3.564V2.819c0-0.361,0.213-0.532,0.426-0.532
		c0.213,0,0.442,0.171,0.442,0.532v1.615h3.732c0.29,0,0.427,0.266,0.427,0.551C49.555,5.251,49.417,5.517,49.128,5.517z"/>
	<path fill="#F4F4F4" d="M61.27,6.163c-0.244,0-0.473-0.057-0.686-0.171c-0.731,7.144-4.159,11.704-8.638,13.376
		c-0.061,0.019-0.106,0.038-0.152,0.038c-0.259,0-0.411-0.285-0.411-0.57c0-0.228,0.106-0.475,0.351-0.57
		c3.732-1.405,7.555-5.604,7.997-13.11h-9.978c-0.305,0-0.457-0.285-0.457-0.57s0.152-0.57,0.457-0.57h9.734
		c0-0.038,0-0.076,0-0.095c0-1.235,0.807-2.185,1.783-2.185c0.975,0,1.767,0.988,1.767,2.204C63.036,5.175,62.244,6.163,61.27,6.163
		z M61.27,2.648c-0.595,0-1.052,0.57-1.052,1.292c0,0.741,0.457,1.311,1.052,1.311c0.578,0,1.035-0.57,1.035-1.311
		C62.305,3.218,61.848,2.648,61.27,2.648z"/>
	<path fill="#F4F4F4" d="M65.352,19.368c-0.016,0-0.031,0-0.062,0c-0.274,0-0.441-0.285-0.441-0.589c0-0.267,0.137-0.532,0.411-0.57
		c4.768-0.494,8.378-3.686,8.911-8.702H63.325c-0.305,0-0.457-0.285-0.457-0.57c0-0.304,0.152-0.589,0.457-0.589h11.364
		c0.289,0,0.457,0.19,0.457,0.551c0,0.038,0,0.057,0,0.095C74.689,15.397,70.424,18.798,65.352,19.368z M73.912,5.156h-9.657
		c-0.305,0-0.457-0.285-0.457-0.57s0.152-0.57,0.457-0.57h9.657c0.305,0,0.457,0.285,0.457,0.57S74.217,5.156,73.912,5.156z"/>
	<path fill="#F4F4F4" d="M88.033,19.482c-0.122,0-0.243-0.076-0.335-0.209c-1.173-1.786-3.504-4.788-4.661-6.118
		c-1.874,2.85-4.159,5.072-6.246,6.155c-0.076,0.038-0.137,0.058-0.197,0.058c-0.26,0-0.442-0.304-0.442-0.608
		c0-0.209,0.076-0.398,0.274-0.513c3.732-2.052,7.602-6.992,9.033-13.091h-7.784c-0.305,0-0.457-0.285-0.457-0.57
		s0.152-0.57,0.457-0.57h8.394c0.32,0,0.473,0.171,0.473,0.475c0,0.076-0.016,0.152-0.031,0.247
		c-0.487,2.66-1.554,5.263-2.925,7.543c1.569,1.71,3.809,4.73,4.814,6.27c0.076,0.114,0.106,0.229,0.106,0.361
		C88.506,19.216,88.277,19.482,88.033,19.482z"/>
	<path fill="#F4F4F4" d="M102.002,10.837h-5.164c-0.137,4.712-2.604,7.657-5.91,8.588c-0.03,0.02-0.076,0.02-0.106,0.02
		c-0.259,0-0.457-0.305-0.457-0.589c0-0.247,0.106-0.494,0.365-0.57c2.758-0.685,5.043-3.249,5.194-7.448h-6.139
		c-0.305,0-0.457-0.285-0.457-0.57c0-0.285,0.152-0.57,0.457-0.57h6.139V5.289c-1.935,0.323-3.641,0.532-5.255,0.589
		c-0.016,0-0.016,0-0.03,0c-0.29,0-0.442-0.266-0.442-0.551c0-0.285,0.152-0.551,0.442-0.57c2.727-0.152,6.596-0.741,9.475-1.596
		c0.046-0.019,0.076-0.019,0.122-0.019c0.274,0,0.487,0.285,0.487,0.608c0,0.209-0.106,0.418-0.335,0.494
		c-1.051,0.342-2.285,0.646-3.55,0.874v4.579h5.164c0.305,0,0.457,0.285,0.457,0.57C102.459,10.552,102.307,10.837,102.002,10.837z"
		/>
	<path fill="#F4F4F4" d="M104.973,11.54c0,0.323-0.213,0.513-0.427,0.513c-0.197,0-0.38-0.133-0.426-0.456
		c-0.152-1.121-0.655-3.591-0.884-4.617c-0.016-0.057-0.016-0.114-0.016-0.152c0-0.342,0.229-0.532,0.442-0.532
		c0.167,0,0.351,0.114,0.411,0.399c0.243,1.102,0.762,3.496,0.898,4.75C104.973,11.483,104.973,11.502,104.973,11.54z
		 M105.612,19.444c-0.03,0-0.076,0.019-0.106,0.019c-0.259,0-0.381-0.266-0.381-0.551c0-0.247,0.106-0.494,0.351-0.551
		c4.539-1.254,7.251-5.13,7.434-11.477c0.016-0.342,0.229-0.513,0.441-0.513c0.244,0,0.442,0.247,0.442,0.551
		C113.671,14.428,109.984,18.361,105.612,19.444z M108.812,11.122c0,0.304-0.213,0.551-0.441,0.551
		c-0.198,0-0.396-0.152-0.427-0.494c-0.092-1.197-0.487-3.648-0.701-4.693c-0.015-0.057-0.015-0.095-0.015-0.133
		c0-0.323,0.229-0.532,0.457-0.532c0.183,0,0.351,0.133,0.411,0.418c0.198,1.14,0.655,3.743,0.716,4.845
		C108.812,11.103,108.812,11.103,108.812,11.122z"/>
	<path fill="#F4F4F4" d="M116.764,19.406c-0.046,0.019-0.092,0.019-0.138,0.019c-0.243,0-0.441-0.285-0.441-0.569
		c0-0.229,0.106-0.476,0.351-0.552c4.555-1.501,8.18-5.566,9.018-12.312h-6.261c-0.975,1.786-2.3,3.553-3.687,4.807
		c-0.091,0.076-0.183,0.114-0.274,0.114c-0.243,0-0.457-0.285-0.457-0.589c0-0.171,0.062-0.323,0.198-0.456
		c1.965-1.767,3.672-4.351,4.601-6.973c0.092-0.247,0.259-0.361,0.427-0.361c0.229,0,0.472,0.209,0.472,0.532
		c0,0.076-0.015,0.152-0.045,0.247c-0.184,0.494-0.396,1.007-0.641,1.539h6.216c0.335,0,0.472,0.209,0.472,0.494
		c0,0.057-0.015,0.095-0.015,0.152C125.705,13.231,121.775,17.81,116.764,19.406z"/>
</g>
</svg>
