<?xml version="1.0" encoding="utf-8"?>
<!-- Generator: Adobe Illustrator 12.0.0, SVG Export Plug-In . SVG Version: 6.00 Build 51448)  -->
<!DOCTYPE svg PUBLIC "-//W3C//DTD SVG 1.1//EN" "http://www.w3.org/Graphics/SVG/1.1/DTD/svg11.dtd" [
	<!ENTITY ns_svg "http://www.w3.org/2000/svg">
	<!ENTITY ns_xlink "http://www.w3.org/1999/xlink">
]>
<svg  version="1.1" id="レイヤー_1" xmlns="&ns_svg;" xmlns:xlink="&ns_xlink;" width="120" height="23" viewBox="0 0 120 23"
	 overflow="visible" enable-background="new 0 0 120 23" xml:space="preserve">
<g>
	<path fill="#F4F4F4" d="M29.692,6.36c-1.16,1.26-3.36,2.439-3.36,2.439c-0.1,0.061-0.2,0.08-0.3,0.08c-0.32,0-0.54-0.28-0.54-0.58
		c0-0.18,0.08-0.359,0.28-0.479c0,0,2.02-1.101,3.1-2.24c0.12-0.14,0.26-0.18,0.4-0.18c0.3,0,0.58,0.26,0.58,0.58
		C29.853,6.1,29.792,6.24,29.692,6.36z M31.393,17.88c-1.92,1.12-5.18,1.82-5.18,1.82c-0.06,0.02-0.1,0.02-0.14,0.02
		c-0.34,0-0.54-0.3-0.54-0.58c0-0.239,0.14-0.46,0.44-0.54c0,0,3.02-0.64,4.82-1.699c0.12-0.061,0.22-0.08,0.32-0.08
		c0.32,0,0.56,0.3,0.56,0.58C31.672,17.58,31.592,17.76,31.393,17.88z M29.612,4.22c-0.08,0-0.16-0.02-0.26-0.06
		c-1.1-0.521-3.26-1.101-3.26-1.101c-0.28-0.1-0.42-0.319-0.42-0.54c0-0.3,0.22-0.579,0.54-0.579c0.06,0,0.12,0,0.2,0.02
		c0,0,2.28,0.62,3.4,1.18c0.24,0.12,0.34,0.301,0.34,0.5C30.152,3.92,29.933,4.22,29.612,4.22z M42.433,8.48c-0.04,0-0.1,0-0.16,0
		c0,0-4.46-1.12-6.18-3.44c-1.26,1.88-4.22,2.96-5.1,3.26h9.62c0.38,0,0.58,0.2,0.58,0.561v7.18c0,0.38-0.2,0.58-0.58,0.58h-12.58
		c-0.38,0-0.58-0.2-0.58-0.58V8.86c0-0.36,0.2-0.561,0.58-0.561h2.24c-0.14-0.12-0.24-0.3-0.24-0.479c0-0.24,0.14-0.46,0.44-0.54
		c0,0,4.08-1,4.94-3.34h-1.96c-0.9,1-1.9,1.819-1.9,1.819c-0.1,0.101-0.22,0.141-0.34,0.141c-0.3,0-0.56-0.28-0.56-0.601
		c0-0.14,0.06-0.28,0.2-0.399c0,0,2.1-1.7,2.78-3.12c0.1-0.24,0.3-0.34,0.48-0.34c0.3,0,0.6,0.239,0.6,0.579
		c0,0.08-0.02,0.16-0.06,0.261c-0.1,0.18-0.22,0.399-0.34,0.56h7.98c0.4,0,0.62,0.16,0.62,0.42c0,0.12-0.04,0.28-0.14,0.42
		c-0.78,1.221-2.74,2.24-2.74,2.24c-0.1,0.04-0.2,0.061-0.28,0.061c-0.32,0-0.54-0.28-0.54-0.58c0-0.2,0.08-0.381,0.32-0.5
		c0,0,0.78-0.4,1.46-0.96h-4.26c1.02,2.439,5.78,3.439,5.78,3.439c0.3,0.061,0.44,0.3,0.44,0.54C42.953,8.2,42.752,8.48,42.433,8.48
		z M40.053,9.42h-11.46v1.2h11.46V9.42z M40.053,11.72h-11.46v1.3h11.46V11.72z M40.053,14.12h-11.46v1.36h11.46V14.12z
		 M42.533,19.72c-0.04,0-0.08,0-0.14-0.02c0,0-3.22-0.7-5.16-1.82c-0.22-0.12-0.3-0.3-0.3-0.46c0-0.3,0.24-0.6,0.56-0.6
		c0.1,0,0.2,0.02,0.32,0.08c1.8,1.06,4.82,1.699,4.82,1.699c0.3,0.08,0.44,0.301,0.44,0.561S42.873,19.72,42.533,19.72z"/>
	<path fill="#F4F4F4" d="M54.732,13.04c0,0-0.82,2.96-2.34,6.04c-0.12,0.22-0.3,0.32-0.5,0.32c-0.3,0-0.6-0.24-0.6-0.561
		c0-0.08,0.02-0.18,0.08-0.28c1.48-2.939,2.26-5.84,2.26-5.84c0.08-0.279,0.3-0.399,0.52-0.399c0.3,0,0.6,0.22,0.6,0.56
		C54.752,12.92,54.752,12.98,54.732,13.04z M54.333,9.7c-0.12,0-0.24-0.04-0.34-0.141c-0.94-0.739-2.32-1.54-2.32-1.54
		c-0.18-0.119-0.26-0.3-0.26-0.479c0-0.3,0.24-0.6,0.54-0.6c0.1,0,0.2,0.02,0.32,0.1c0,0,1.44,0.84,2.42,1.66
		c0.14,0.12,0.2,0.28,0.2,0.42C54.893,9.42,54.632,9.7,54.333,9.7z M54.652,4.98c-0.14,0-0.28-0.061-0.42-0.2
		c-0.94-1.061-2.02-1.82-2.02-1.82c-0.18-0.12-0.26-0.28-0.26-0.44c0-0.319,0.26-0.619,0.58-0.619c0.12,0,0.22,0.04,0.34,0.119
		c0,0,1.16,0.841,2.18,1.98c0.12,0.12,0.16,0.26,0.16,0.38C55.212,4.7,54.953,4.98,54.652,4.98z M68.813,3.56h-4.6
		c-0.08,0.48-0.28,1.221-0.42,1.66h4c0.379,0,0.56,0.2,0.56,0.58v6c0,0.36-0.181,0.561-0.56,0.561h-3.641v5
		c0,1.6-0.32,2.02-1.74,2.02c-0.42,0-0.74,0-1.399-0.1c-0.32-0.061-0.46-0.32-0.46-0.561c0-0.3,0.199-0.6,0.539-0.6
		c0.041,0,0.08,0.02,0.121,0.02c0.439,0.08,0.84,0.08,1.1,0.08c0.7,0,0.721-0.04,0.721-0.859v-5h-3.661c-0.36,0-0.56-0.2-0.56-0.561
		v-6c0-0.38,0.2-0.58,0.56-0.58h3.24c0.101-0.279,0.32-1.08,0.421-1.66h-5.48v4.08c0,6.7-0.84,9.341-1.84,11.28
		c-0.12,0.22-0.32,0.32-0.5,0.32c-0.3,0-0.6-0.24-0.6-0.561c0-0.08,0.02-0.18,0.08-0.26c0.98-1.86,1.74-4.38,1.74-10.78V3
		c0-0.36,0.18-0.56,0.56-0.56h11.82c0.38,0,0.561,0.279,0.561,0.56S69.192,3.56,68.813,3.56z M61.013,14.04
		c-0.58,1.92-2.36,4.14-2.36,4.14c-0.12,0.16-0.28,0.221-0.44,0.221c-0.3,0-0.58-0.261-0.58-0.561c0-0.12,0.02-0.24,0.12-0.34
		c0,0,1.66-2.06,2.16-3.78c0.101-0.279,0.32-0.399,0.541-0.399c0.299,0,0.6,0.199,0.6,0.54C61.053,13.92,61.033,13.98,61.013,14.04z
		 M67.232,6.32h-7.3V8.14h7.3V6.32z M67.232,9.24h-7.3v2.02h7.3V9.24z M68.672,18.8c-0.159,0-0.34-0.06-0.439-0.26
		c-1.3-1.96-2.359-4.3-2.359-4.3c-0.041-0.101-0.061-0.2-0.061-0.28c0-0.3,0.279-0.52,0.561-0.52c0.199,0,0.399,0.1,0.52,0.319
		c0,0,1.02,2.28,2.26,4.181c0.08,0.1,0.1,0.199,0.1,0.319C69.252,18.56,68.973,18.8,68.672,18.8z"/>
	<path fill="#F4F4F4" d="M84.532,11.56c0,0-1.08,0.521-2.439,1.12v6.42c0,0.36-0.28,0.561-0.561,0.561c-0.279,0-0.58-0.2-0.58-0.561
		V13.16c-0.979,0.399-2.1,0.84-2.939,1.1c-0.061,0.021-0.12,0.021-0.181,0.021c-0.34,0-0.56-0.3-0.56-0.58
		c0-0.24,0.14-0.46,0.42-0.54c0.94-0.28,2.16-0.78,3.26-1.24v-5h-2.04c-0.239,1.62-0.5,2.98-0.5,2.98
		c-0.06,0.3-0.279,0.439-0.52,0.439c-0.28,0-0.6-0.2-0.6-0.58c0-0.04,0.02-0.06,0.02-0.1c0,0,0.76-3.88,0.88-6.42
		c0.021-0.36,0.3-0.54,0.561-0.54c0.279,0,0.56,0.18,0.56,0.54c0,0.02,0,0.02,0,0.04c-0.04,0.76-0.1,1.66-0.22,2.52h1.859V2.18
		c0-0.359,0.301-0.56,0.58-0.56c0.28,0,0.561,0.2,0.561,0.56V5.8h1.6c0.38,0,0.561,0.28,0.561,0.561c0,0.279-0.181,0.56-0.561,0.56
		h-1.6v4.521l1.979-0.9c0.08-0.04,0.16-0.06,0.24-0.06c0.32,0,0.56,0.3,0.56,0.6C84.872,11.26,84.772,11.44,84.532,11.56z
		 M94.372,14.62c-0.119,3.38-0.579,4.66-2.88,4.66c-0.42,0-0.899-0.04-1.439-0.12c-0.34-0.061-0.5-0.32-0.5-0.58
		c0-0.28,0.2-0.561,0.54-0.561c0.04,0,0.08,0,0.1,0c0.38,0.061,0.72,0.08,1.021,0.08c1.68,0,1.939-1,2.04-3.52
		c0.06-1.82,0.119-6.8,0.119-9.16h-0.96c-0.859,8.38-6.239,13.4-6.239,13.4c-0.12,0.12-0.24,0.16-0.38,0.16
		c-0.301,0-0.58-0.301-0.58-0.601c0-0.14,0.06-0.3,0.18-0.42c0,0,5.08-4.68,5.88-12.54h-1.94c-1,5.66-5.039,9.54-5.039,9.54
		c-0.12,0.1-0.24,0.16-0.36,0.16c-0.32,0-0.601-0.3-0.601-0.62c0-0.14,0.061-0.28,0.181-0.4c0,0,3.64-3.399,4.72-8.68h-1.82
		c-1,2.3-2.159,3.68-2.159,3.68c-0.141,0.141-0.28,0.2-0.44,0.2c-0.3,0-0.58-0.26-0.58-0.56c0-0.141,0.04-0.26,0.16-0.38
		c0,0,2.08-2.44,2.939-6.38c0.061-0.301,0.301-0.421,0.521-0.421c0.3,0,0.6,0.2,0.6,0.561c0,0.04-0.02,0.08-0.02,0.14
		c-0.16,0.681-0.38,1.4-0.601,2.04h7.101c0.38,0,0.56,0.16,0.56,0.561C94.492,6.84,94.452,12.64,94.372,14.62z"/>
</g>
</svg>
