<?xml version="1.0" encoding="utf-8"?>
<!-- Generator: Adobe Illustrator 12.0.0, SVG Export Plug-In . SVG Version: 6.00 Build 51448)  -->
<!DOCTYPE svg PUBLIC "-//W3C//DTD SVG 1.1//EN" "http://www.w3.org/Graphics/SVG/1.1/DTD/svg11.dtd" [
	<!ENTITY ns_svg "http://www.w3.org/2000/svg">
	<!ENTITY ns_xlink "http://www.w3.org/1999/xlink">
]>
<svg  version="1.1" id="レイヤー_1" xmlns="&ns_svg;" xmlns:xlink="&ns_xlink;" width="120" height="23" viewBox="0 0 120 23"
	 overflow="visible" enable-background="new 0 0 120 23" xml:space="preserve">
<g>
	<path fill="#F4F4F4" d="M38.279,7.726c-0.04,0-0.08-0.01-0.13-0.029c0,0-0.53-0.24-1.18-0.59c0.08,0.05,0.1,0.159,0.1,0.25v2.43
		c0,0.189-0.1,0.29-0.3,0.29h-5.45c-0.19,0-0.29-0.101-0.29-0.29v-2.43c0-0.2,0.1-0.301,0.29-0.301h5.55
		c-0.87-0.479-2.03-1.25-2.88-2.13c-1.57,1.61-4.05,2.8-4.05,2.8c-0.05,0.021-0.1,0.03-0.14,0.03c-0.17,0-0.3-0.16-0.3-0.31
		c0-0.101,0.05-0.2,0.16-0.25c0,0,2.59-1.23,4.07-2.84c0.04-0.051,0.14-0.101,0.21-0.101h0.1c0.07,0,0.17,0.05,0.22,0.101
		c1.46,1.659,4.12,2.79,4.12,2.79c0.13,0.05,0.18,0.159,0.18,0.26C38.56,7.567,38.439,7.726,38.279,7.726z M37.879,4.247
		c-0.15,0-0.3-0.1-0.3-0.29v-1.03h-7.17v1.03c0,0.19-0.15,0.29-0.3,0.29c-0.14,0-0.29-0.1-0.29-0.29v-1.32c0-0.2,0.1-0.29,0.29-0.29
		h3.59V1.647c0-0.19,0.14-0.29,0.29-0.29c0.14,0,0.29,0.1,0.29,0.29v0.699h3.6c0.19,0,0.29,0.09,0.29,0.29v1.32
		C38.169,4.147,38.02,4.247,37.879,4.247z M32.779,3.976c-0.96,0.71-2.32,1.29-2.32,1.29c-0.04,0.021-0.08,0.021-0.12,0.021
		c-0.17,0-0.29-0.16-0.29-0.311c0-0.109,0.06-0.21,0.18-0.26c0,0,1.3-0.54,2.22-1.21c0.06-0.04,0.11-0.06,0.17-0.06
		c0.16,0,0.28,0.14,0.28,0.3C32.899,3.827,32.87,3.907,32.779,3.976z M36.479,7.647h-4.86v1.859h4.86V7.647z M37.569,5.346
		c-0.04,0-0.09-0.02-0.14-0.04c0,0-1.34-0.85-2.46-1.38c-0.12-0.06-0.16-0.149-0.16-0.25c0-0.16,0.12-0.319,0.29-0.319
		c0.04,0,0.09,0.02,0.14,0.04c1.14,0.51,2.48,1.399,2.48,1.399c0.11,0.061,0.15,0.15,0.15,0.24
		C37.87,5.186,37.739,5.346,37.569,5.346z"/>
	<path fill="#F4F4F4" d="M49.299,7.857c-0.03,0-0.07,0-0.1-0.011c0,0-0.08-0.029-0.14-0.05v2.13c0,0.19-0.1,0.29-0.28,0.29h-3.07
		c-0.18,0-0.28-0.1-0.28-0.29v-2.46c0-0.18,0.1-0.28,0.28-0.28h1.62c-0.74-0.27-1.55-0.689-1.89-1.149h-1.18
		c-0.52,0.49-1.18,0.89-1.76,1.149h1.79c0.18,0,0.28,0.101,0.28,0.28v2.46c0,0.19-0.1,0.29-0.28,0.29h-2.97
		c-0.19,0-0.28-0.1-0.28-0.29V7.817c-0.11,0.029-0.25,0.069-0.25,0.069c-0.03,0.011-0.06,0.021-0.09,0.021
		c-0.16,0-0.26-0.15-0.26-0.29c0-0.12,0.07-0.24,0.21-0.271c0,0,1.55-0.38,2.79-1.31h-2.67c-0.19,0-0.28-0.14-0.28-0.28
		c0-0.149,0.09-0.29,0.28-0.29h3.27c0.29-0.29,0.52-0.62,0.7-0.99c0.05-0.119,0.15-0.17,0.24-0.17c0.15,0,0.29,0.11,0.29,0.271
		c0,0.04-0.01,0.09-0.03,0.13c-0.12,0.27-0.28,0.53-0.46,0.76h4.34c0.19,0,0.29,0.141,0.29,0.29c0,0.141-0.1,0.28-0.29,0.28h-2.93
		c1.05,0.729,3.15,1.26,3.15,1.26c0.14,0.03,0.21,0.15,0.21,0.271C49.549,7.707,49.45,7.857,49.299,7.857z M44.37,4.567
		c0,0.17-0.1,0.26-0.28,0.26h-2.81c-0.19,0-0.28-0.101-0.28-0.29v-2.49c0-0.18,0.09-0.28,0.28-0.28h2.81
		c0.19,0,0.28,0.101,0.28,0.28v2.49C44.37,4.546,44.37,4.556,44.37,4.567z M43.81,2.317h-2.25v1.96h2.25V2.317z M44,7.737h-2.4v1.93
		l2.4,0.01V7.737z M48.759,4.827h-2.91c-0.19,0-0.28-0.101-0.28-0.29v-2.49c0-0.18,0.09-0.28,0.28-0.28h2.91
		c0.19,0,0.28,0.101,0.28,0.28v2.49C49.04,4.726,48.95,4.827,48.759,4.827z M48.5,7.737H46v1.93l2.5,0.01V7.737z M48.479,2.317
		h-2.35v1.96h2.35V2.317z"/>
	<path fill="#F4F4F4" d="M59.6,6.737c-0.13,0.88-0.29,1.239-1.3,1.239c-0.22,0-0.47-0.02-0.77-0.05c-0.18-0.02-0.27-0.16-0.27-0.3
		c0-0.15,0.1-0.3,0.29-0.3c0.02,0,0.03,0,0.04,0c0.26,0.02,0.47,0.04,0.64,0.04c0.56,0,0.69-0.17,0.77-0.71
		c0.1-0.69,0.13-2.83,0.13-3.63l-5.66-0.011c-0.72,1.07-1.55,1.83-1.55,1.83c-0.07,0.061-0.14,0.08-0.2,0.08
		c-0.17,0-0.31-0.149-0.31-0.31c0-0.08,0.03-0.16,0.1-0.22c0,0,1.41-1.311,2.1-2.82c0.05-0.13,0.15-0.18,0.26-0.18
		c0.15,0,0.31,0.119,0.31,0.3c0,0.04,0,0.08-0.03,0.13c-0.09,0.2-0.19,0.399-0.3,0.6h5.58c0.2,0,0.3,0.09,0.3,0.28
		c0,0.01,0,0.01,0,0.02C59.729,2.726,59.729,5.867,59.6,6.737z M58.089,10.117c-0.24,0.02-1.46,0.02-1.97,0.02
		c-0.09,0-0.17,0-0.26,0c-3.33,0-3.4-0.02-3.4-1.55v-1.84c0-0.2,0.1-0.3,0.31-0.3h3.56v-1.67h-3.31c-0.2,0-0.3-0.15-0.3-0.301
		c0-0.159,0.1-0.31,0.3-0.31h3.61c0.21,0,0.31,0.1,0.31,0.31v2.271c0,0.21-0.1,0.3-0.31,0.3h-3.56v1.54c0,0.87,0.11,0.95,1.74,0.95
		c0.36,0,0.79,0.01,1.31,0.01c0.35,0,0.67-0.01,0.96-0.01c2.07,0,2.63-0.08,2.67-1.3c0.01-0.2,0.15-0.301,0.3-0.301
		c0.15,0,0.31,0.101,0.31,0.301c0,0,0,0.01,0,0.02C60.299,9.556,59.89,9.987,58.089,10.117z"/>
	<path fill="#F4F4F4" d="M71.279,6.926h-3.6c0.31,0.601,0.66,1.09,1.17,1.51c0.199-0.119,0.9-0.51,1.6-1.079
		c0.061-0.051,0.12-0.07,0.17-0.07c0.16,0,0.291,0.149,0.291,0.3c0,0.08-0.031,0.15-0.111,0.22c-0.569,0.45-1.139,0.811-1.469,1.011
		c0.979,0.68,2,1.05,2,1.05c0.119,0.05,0.17,0.149,0.17,0.24c0,0.149-0.121,0.31-0.28,0.31c-0.04,0-0.08-0.01-0.12-0.03
		c-1.85-0.77-3.29-1.72-4.03-3.46H66.91c-0.421,0.32-0.9,0.66-1.381,0.91v1.72c1.16-0.18,1.85-0.359,1.85-0.359
		c0.021,0,0.051,0,0.07,0c0.17,0,0.28,0.14,0.28,0.29c0,0.109-0.06,0.21-0.21,0.25c0,0-1.721,0.449-4.29,0.64
		c-0.01,0-0.021,0-0.03,0c-0.18,0-0.279-0.14-0.279-0.28c0-0.13,0.09-0.27,0.27-0.279c0.66-0.051,1.24-0.12,1.77-0.181v-1.54
		c-1.17,0.521-2.22,0.801-2.22,0.801c-0.03,0.01-0.069,0.02-0.1,0.02c-0.15,0-0.261-0.15-0.261-0.3c0-0.12,0.061-0.23,0.211-0.271
		c0,0,1.949-0.51,3.439-1.42h-3.35c-0.19,0-0.28-0.14-0.28-0.29c0-0.14,0.09-0.279,0.28-0.279h4.029V5.886
		c0-0.189,0.141-0.279,0.28-0.279s0.28,0.09,0.28,0.279v0.471h4.01c0.19,0,0.28,0.14,0.28,0.279
		C71.56,6.787,71.47,6.926,71.279,6.926z M64.879,6.016c-0.14,0-0.279-0.09-0.279-0.279v-1.28c-0.36,0.16-1.141,0.51-1.76,0.7
		c-0.03,0.01-0.061,0.01-0.09,0.01c-0.17,0-0.271-0.14-0.271-0.29c0-0.11,0.06-0.22,0.2-0.27c0.79-0.23,1.92-0.771,1.92-0.78v-2.15
		c0-0.189,0.14-0.279,0.279-0.279c0.141,0,0.281,0.09,0.281,0.279v4.061C65.16,5.926,65.02,6.016,64.879,6.016z M64.02,3.266
		c-0.09,0-0.18-0.04-0.24-0.14c-0.14-0.22-0.85-0.83-0.85-0.83c-0.07-0.07-0.09-0.14-0.09-0.21c0-0.16,0.13-0.31,0.27-0.31
		c0.07,0,0.13,0.029,0.189,0.09c0,0,0.811,0.71,0.971,0.97c0.029,0.05,0.04,0.11,0.04,0.16C64.31,3.147,64.17,3.266,64.02,3.266z
		 M71.299,3.096H68.85v1.83h2.109c0.19,0,0.28,0.15,0.28,0.29c0,0.141-0.09,0.28-0.28,0.28h-4.83c-0.189,0-0.279-0.14-0.279-0.28
		c0-0.14,0.09-0.29,0.279-0.29h2.15v-1.83h-2.34c-0.189,0-0.29-0.14-0.29-0.279c0-0.15,0.101-0.29,0.29-0.29h2.34V1.676
		c0-0.189,0.141-0.279,0.28-0.279s0.29,0.09,0.29,0.279v0.851h2.449c0.19,0,0.281,0.14,0.281,0.29
		C71.58,2.957,71.489,3.096,71.299,3.096z"/>
	<path fill="#F4F4F4" d="M37.27,12.436c-0.16,0-0.31-0.029-0.45-0.09c-0.48,3.762-2.73,6.16-5.67,7.041
		c-0.04,0.01-0.07,0.02-0.1,0.02c-0.17,0-0.27-0.15-0.27-0.299c0-0.121,0.07-0.25,0.23-0.301c2.45-0.74,4.96-2.949,5.25-6.9h-6.55
		c-0.2,0-0.3-0.15-0.3-0.3c0-0.15,0.1-0.301,0.3-0.301h6.39c0-0.02,0-0.04,0-0.05c0-0.649,0.53-1.149,1.17-1.149
		s1.16,0.52,1.16,1.159C38.43,11.917,37.91,12.436,37.27,12.436z M37.27,10.586c-0.39,0-0.69,0.3-0.69,0.68
		c0,0.391,0.3,0.69,0.69,0.69c0.38,0,0.68-0.3,0.68-0.69C37.95,10.886,37.649,10.586,37.27,10.586z"/>
	<path fill="#F4F4F4" d="M41.95,19.387c-0.01,0-0.02,0-0.04,0c-0.18,0-0.29-0.15-0.29-0.311c0-0.141,0.09-0.279,0.27-0.299
		c3.13-0.262,5.5-1.941,5.85-4.58h-7.12c-0.2,0-0.3-0.15-0.3-0.301c0-0.16,0.1-0.311,0.3-0.311h7.46c0.19,0,0.3,0.1,0.3,0.291
		c0,0.02,0,0.029,0,0.049C48.08,17.297,45.28,19.086,41.95,19.387z M47.57,11.907h-6.34c-0.2,0-0.3-0.15-0.3-0.3
		c0-0.15,0.1-0.301,0.3-0.301h6.34c0.2,0,0.3,0.15,0.3,0.301C47.87,11.756,47.77,11.907,47.57,11.907z"/>
	<path fill="#F4F4F4" d="M58.84,19.447c-0.08,0-0.16-0.041-0.22-0.111c-0.77-0.939-2.3-2.52-3.06-3.219
		c-1.23,1.5-2.73,2.67-4.1,3.24c-0.05,0.02-0.09,0.029-0.13,0.029c-0.17,0-0.29-0.16-0.29-0.32c0-0.109,0.05-0.209,0.18-0.27
		c2.45-1.08,4.99-3.68,5.93-6.89h-5.11c-0.2,0-0.3-0.15-0.3-0.3c0-0.15,0.1-0.301,0.3-0.301h5.51c0.21,0,0.31,0.091,0.31,0.25
		c0,0.04-0.01,0.08-0.02,0.13c-0.32,1.4-1.02,2.771-1.92,3.97c1.03,0.9,2.5,2.49,3.16,3.301c0.05,0.059,0.07,0.119,0.07,0.189
		C59.149,19.307,59,19.447,58.84,19.447z"/>
	<path fill="#F4F4F4" d="M70.01,14.896h-3.39c-0.091,2.48-1.71,4.029-3.88,4.52c-0.02,0.01-0.051,0.01-0.07,0.01
		c-0.17,0-0.3-0.16-0.3-0.309c0-0.131,0.069-0.26,0.239-0.301c1.811-0.359,3.311-1.709,3.41-3.92H61.99
		c-0.2,0-0.301-0.15-0.301-0.301c0-0.148,0.101-0.299,0.301-0.299h4.029v-2.321c-1.27,0.17-2.39,0.28-3.449,0.311
		c-0.01,0-0.01,0-0.021,0c-0.19,0-0.29-0.141-0.29-0.291c0-0.15,0.1-0.29,0.29-0.3c1.79-0.08,4.33-0.391,6.22-0.84
		c0.03-0.011,0.051-0.011,0.08-0.011c0.18,0,0.32,0.15,0.32,0.32c0,0.11-0.07,0.22-0.22,0.26c-0.69,0.181-1.5,0.34-2.33,0.46v2.411
		h3.39c0.2,0,0.301,0.15,0.301,0.299C70.311,14.746,70.21,14.896,70.01,14.896z"/>
	<path fill="#F4F4F4" d="M73.96,15.266c0,0.17-0.14,0.271-0.28,0.271c-0.13,0-0.25-0.07-0.279-0.24
		c-0.101-0.59-0.431-1.891-0.58-2.43c-0.011-0.031-0.011-0.061-0.011-0.08c0-0.18,0.15-0.281,0.29-0.281
		c0.11,0,0.23,0.061,0.27,0.211c0.16,0.58,0.5,1.84,0.591,2.5C73.96,15.236,73.96,15.246,73.96,15.266z M74.38,19.426
		c-0.021,0-0.05,0.01-0.07,0.01c-0.17,0-0.25-0.139-0.25-0.289c0-0.131,0.07-0.26,0.23-0.289c2.979-0.66,4.76-2.701,4.88-6.041
		c0.01-0.18,0.15-0.27,0.29-0.27c0.159,0,0.29,0.129,0.29,0.289C79.67,16.787,77.25,18.857,74.38,19.426z M76.48,15.047
		c0,0.16-0.141,0.289-0.291,0.289c-0.13,0-0.26-0.08-0.279-0.26c-0.061-0.629-0.32-1.92-0.461-2.469
		c-0.01-0.031-0.01-0.051-0.01-0.07c0-0.17,0.15-0.281,0.301-0.281c0.119,0,0.229,0.07,0.27,0.221c0.13,0.6,0.43,1.971,0.471,2.551
		C76.48,15.037,76.48,15.037,76.48,15.047z"/>
	<path fill="#F4F4F4" d="M83.7,19.406c-0.03,0.01-0.061,0.01-0.09,0.01c-0.16,0-0.29-0.15-0.29-0.299
		c0-0.121,0.069-0.25,0.229-0.291c2.99-0.789,5.37-2.93,5.92-6.48H85.36c-0.641,0.941-1.511,1.871-2.42,2.531
		c-0.061,0.039-0.12,0.059-0.181,0.059c-0.16,0-0.3-0.148-0.3-0.309c0-0.09,0.04-0.17,0.13-0.24c1.29-0.93,2.41-2.291,3.021-3.67
		c0.06-0.13,0.17-0.189,0.279-0.189c0.15,0,0.311,0.109,0.311,0.279c0,0.04-0.01,0.08-0.03,0.13c-0.12,0.261-0.26,0.53-0.42,0.811
		h4.08c0.22,0,0.31,0.11,0.31,0.259c0,0.031-0.01,0.051-0.01,0.08C89.57,16.156,86.99,18.566,83.7,19.406z"/>
</g>
</svg>
