<?xml version="1.0" encoding="utf-8"?>
<!-- Generator: Adobe Illustrator 12.0.0, SVG Export Plug-In . SVG Version: 6.00 Build 51448)  -->
<!DOCTYPE svg PUBLIC "-//W3C//DTD SVG 1.1//EN" "http://www.w3.org/Graphics/SVG/1.1/DTD/svg11.dtd" [
	<!ENTITY ns_svg "http://www.w3.org/2000/svg">
	<!ENTITY ns_xlink "http://www.w3.org/1999/xlink">
]>
<svg  version="1.1" id="レイヤー_1" xmlns="&ns_svg;" xmlns:xlink="&ns_xlink;" width="120" height="23" viewBox="0 0 120 23"
	 overflow="visible" enable-background="new 0 0 120 23" xml:space="preserve">
<g>
	<path fill="#F4F4F4" d="M22.893,14.12c-0.08,0-0.16-0.021-0.26-0.061c0,0-1.06-0.479-2.36-1.18c0.16,0.101,0.2,0.32,0.2,0.5v4.86
		c0,0.38-0.2,0.58-0.6,0.58h-10.9c-0.38,0-0.58-0.2-0.58-0.58v-4.86c0-0.399,0.2-0.6,0.58-0.6h11.1c-1.74-0.96-4.06-2.5-5.76-4.261
		c-3.14,3.221-8.1,5.601-8.1,5.601c-0.1,0.04-0.2,0.06-0.28,0.06c-0.34,0-0.6-0.319-0.6-0.62c0-0.199,0.1-0.399,0.32-0.5
		c0,0,5.18-2.46,8.14-5.68c0.08-0.1,0.28-0.2,0.42-0.2h0.2c0.14,0,0.34,0.101,0.44,0.2c2.92,3.32,8.24,5.58,8.24,5.58
		c0.26,0.1,0.36,0.32,0.36,0.521C23.453,13.8,23.212,14.12,22.893,14.12z M22.092,7.16c-0.3,0-0.6-0.2-0.6-0.58V4.52H7.152V6.58
		c0,0.38-0.3,0.58-0.6,0.58c-0.28,0-0.58-0.2-0.58-0.58V3.94c0-0.4,0.2-0.58,0.58-0.58h7.18v-1.4c0-0.38,0.28-0.58,0.58-0.58
		c0.28,0,0.58,0.2,0.58,0.58v1.4h7.2c0.38,0,0.58,0.18,0.58,0.58v2.64C22.672,6.96,22.373,7.16,22.092,7.16z M11.893,6.62
		c-1.92,1.42-4.64,2.58-4.64,2.58c-0.08,0.04-0.16,0.04-0.24,0.04c-0.34,0-0.58-0.32-0.58-0.62c0-0.22,0.12-0.42,0.36-0.521
		c0,0,2.6-1.08,4.44-2.42c0.12-0.08,0.22-0.12,0.34-0.12c0.32,0,0.56,0.28,0.56,0.601C12.132,6.32,12.072,6.48,11.893,6.62z
		 M19.292,13.96h-9.72v3.72h9.72V13.96z M21.473,9.36c-0.08,0-0.18-0.04-0.28-0.08c0,0-2.68-1.7-4.92-2.761
		c-0.24-0.119-0.32-0.3-0.32-0.5c0-0.319,0.24-0.64,0.58-0.64c0.08,0,0.18,0.04,0.28,0.08c2.28,1.021,4.96,2.8,4.96,2.8
		c0.22,0.12,0.3,0.3,0.3,0.48C22.072,9.04,21.813,9.36,21.473,9.36z"/>
	<path fill="#F4F4F4" d="M41.933,14.38c-0.06,0-0.14,0-0.2-0.02c0,0-0.16-0.061-0.28-0.101v4.26c0,0.381-0.2,0.58-0.56,0.58h-6.14
		c-0.36,0-0.56-0.199-0.56-0.58V13.6c0-0.359,0.2-0.56,0.56-0.56h3.24c-1.48-0.54-3.1-1.38-3.78-2.3h-2.36
		c-1.04,0.979-2.36,1.779-3.52,2.3h3.58c0.36,0,0.56,0.2,0.56,0.56v4.92c0,0.381-0.2,0.58-0.56,0.58h-5.94
		c-0.38,0-0.56-0.199-0.56-0.58V14.3c-0.22,0.061-0.5,0.141-0.5,0.141c-0.06,0.02-0.12,0.04-0.18,0.04c-0.32,0-0.52-0.301-0.52-0.58
		c0-0.24,0.14-0.48,0.42-0.54c0,0,3.1-0.761,5.58-2.62h-5.34c-0.38,0-0.56-0.28-0.56-0.561c0-0.3,0.18-0.58,0.56-0.58h6.54
		c0.58-0.58,1.04-1.239,1.4-1.979c0.1-0.24,0.3-0.34,0.48-0.34c0.3,0,0.58,0.22,0.58,0.54c0,0.08-0.02,0.18-0.06,0.26
		c-0.24,0.54-0.56,1.06-0.92,1.52h8.68c0.38,0,0.58,0.28,0.58,0.58c0,0.28-0.2,0.561-0.58,0.561h-5.86c2.1,1.46,6.3,2.52,6.3,2.52
		c0.28,0.061,0.42,0.3,0.42,0.54C42.433,14.08,42.232,14.38,41.933,14.38z M32.072,7.8c0,0.34-0.2,0.521-0.56,0.521h-5.62
		c-0.38,0-0.56-0.2-0.56-0.58V2.76c0-0.359,0.18-0.56,0.56-0.56h5.62c0.38,0,0.56,0.2,0.56,0.56v4.98
		C32.072,7.76,32.072,7.78,32.072,7.8z M30.953,3.3h-4.5v3.92h4.5V3.3z M31.333,14.14h-4.8V18l4.8,0.02V14.14z M40.853,8.32h-5.82
		c-0.38,0-0.56-0.2-0.56-0.58V2.76c0-0.359,0.18-0.56,0.56-0.56h5.82c0.38,0,0.56,0.2,0.56,0.56v4.98
		C41.413,8.12,41.232,8.32,40.853,8.32z M40.333,14.14h-5V18l5,0.02V14.14z M40.292,3.3h-4.7v3.92h4.7V3.3z"/>
	<path fill="#F4F4F4" d="M59.532,12.14c-0.26,1.761-0.58,2.48-2.6,2.48c-0.44,0-0.94-0.04-1.54-0.101
		c-0.36-0.039-0.54-0.319-0.54-0.6c0-0.3,0.2-0.6,0.58-0.6c0.04,0,0.06,0,0.08,0c0.52,0.04,0.94,0.08,1.28,0.08
		c1.119,0,1.38-0.341,1.539-1.42c0.2-1.381,0.261-5.66,0.261-7.261L47.272,4.7c-1.44,2.14-3.1,3.66-3.1,3.66
		c-0.14,0.12-0.28,0.159-0.4,0.159c-0.34,0-0.62-0.3-0.62-0.619c0-0.16,0.06-0.32,0.2-0.44c0,0,2.82-2.62,4.2-5.64
		c0.1-0.261,0.3-0.36,0.52-0.36c0.3,0,0.62,0.24,0.62,0.6c0,0.08,0,0.16-0.06,0.261c-0.18,0.399-0.38,0.8-0.6,1.199h11.16
		c0.4,0,0.601,0.181,0.601,0.561c0,0.02,0,0.02,0,0.04C59.793,4.12,59.793,10.4,59.532,12.14z M56.513,18.9
		c-0.48,0.04-2.92,0.04-3.94,0.04c-0.18,0-0.34,0-0.52,0c-6.66,0-6.8-0.04-6.8-3.101v-3.68c0-0.4,0.2-0.601,0.62-0.601h7.12V8.22
		h-6.62c-0.4,0-0.6-0.3-0.6-0.6c0-0.32,0.2-0.62,0.6-0.62h7.22c0.42,0,0.62,0.2,0.62,0.62v4.54c0,0.42-0.2,0.6-0.62,0.6h-7.12v3.08
		c0,1.74,0.22,1.9,3.48,1.9c0.72,0,1.58,0.02,2.62,0.02c0.7,0,1.34-0.02,1.92-0.02c4.14,0,5.26-0.16,5.339-2.601
		c0.021-0.399,0.301-0.6,0.601-0.6s0.62,0.2,0.62,0.6c0,0,0,0.021,0,0.04C60.933,17.78,60.112,18.64,56.513,18.9z"/>
	<path fill="#F4F4F4" d="M79.893,12.52h-7.199c0.62,1.2,1.319,2.181,2.34,3.021c0.399-0.24,1.8-1.021,3.2-2.16
		c0.119-0.1,0.239-0.14,0.34-0.14c0.319,0,0.58,0.3,0.58,0.6c0,0.16-0.061,0.3-0.221,0.44c-1.14,0.899-2.279,1.62-2.939,2.02
		c1.96,1.36,4,2.101,4,2.101c0.24,0.1,0.34,0.3,0.34,0.479c0,0.3-0.24,0.62-0.56,0.62c-0.08,0-0.16-0.02-0.24-0.06
		c-3.7-1.54-6.58-3.44-8.061-6.921h-0.319c-0.84,0.641-1.801,1.32-2.761,1.82v3.44c2.32-0.36,3.7-0.721,3.7-0.721
		c0.04,0,0.101,0,0.141,0c0.34,0,0.56,0.28,0.56,0.58c0,0.221-0.12,0.42-0.42,0.5c0,0-3.44,0.9-8.58,1.28c-0.02,0-0.04,0-0.06,0
		c-0.36,0-0.561-0.28-0.561-0.56c0-0.261,0.18-0.54,0.54-0.561c1.32-0.1,2.48-0.24,3.54-0.359v-3.08c-2.34,1.04-4.439,1.6-4.439,1.6
		c-0.061,0.021-0.141,0.04-0.2,0.04c-0.3,0-0.521-0.3-0.521-0.6c0-0.24,0.12-0.46,0.42-0.54c0,0,3.9-1.021,6.88-2.841h-6.699
		c-0.38,0-0.561-0.279-0.561-0.579c0-0.28,0.181-0.561,0.561-0.561h8.06V10.44c0-0.381,0.28-0.561,0.561-0.561
		c0.279,0,0.56,0.18,0.56,0.561v0.939h8.02c0.381,0,0.561,0.28,0.561,0.561C80.453,12.24,80.273,12.52,79.893,12.52z M67.093,10.7
		c-0.279,0-0.56-0.181-0.56-0.561V7.58c-0.72,0.32-2.28,1.02-3.521,1.4C62.953,9,62.893,9,62.833,9c-0.34,0-0.54-0.28-0.54-0.58
		c0-0.22,0.12-0.439,0.4-0.54c1.58-0.46,3.84-1.54,3.84-1.56V2.02c0-0.38,0.28-0.56,0.56-0.56c0.28,0,0.561,0.18,0.561,0.56v8.12
		C67.653,10.52,67.373,10.7,67.093,10.7z M65.373,5.2c-0.18,0-0.36-0.08-0.48-0.28c-0.279-0.439-1.699-1.66-1.699-1.66
		c-0.141-0.14-0.181-0.279-0.181-0.42c0-0.32,0.261-0.62,0.54-0.62c0.141,0,0.261,0.061,0.38,0.181c0,0,1.62,1.42,1.94,1.939
		c0.06,0.101,0.08,0.22,0.08,0.32C65.953,4.96,65.673,5.2,65.373,5.2z M79.933,4.86h-4.899V8.52h4.22c0.38,0,0.561,0.301,0.561,0.58
		c0,0.28-0.181,0.561-0.561,0.561h-9.66c-0.38,0-0.56-0.28-0.56-0.561c0-0.279,0.18-0.58,0.56-0.58h4.3V4.86h-4.68
		c-0.38,0-0.58-0.28-0.58-0.561c0-0.3,0.2-0.58,0.58-0.58h4.68v-1.7c0-0.38,0.28-0.56,0.561-0.56s0.58,0.18,0.58,0.56v1.7h4.899
		c0.381,0,0.561,0.28,0.561,0.58C80.493,4.58,80.313,4.86,79.933,4.86z"/>
	<path fill="#F4F4F4" d="M96.873,5.54c-0.32,0-0.62-0.06-0.9-0.18c-0.96,7.52-5.46,12.319-11.34,14.08
		c-0.08,0.02-0.14,0.04-0.2,0.04c-0.34,0-0.54-0.301-0.54-0.601c0-0.24,0.141-0.5,0.46-0.6c4.9-1.48,9.921-5.9,10.5-13.8h-13.1
		c-0.4,0-0.6-0.301-0.6-0.601s0.199-0.6,0.6-0.6h12.78c0-0.04,0-0.08,0-0.101c0-1.3,1.06-2.3,2.34-2.3s2.32,1.04,2.32,2.32
		C99.193,4.5,98.153,5.54,96.873,5.54z M96.873,1.84c-0.78,0-1.38,0.601-1.38,1.36c0,0.78,0.6,1.38,1.38,1.38
		c0.76,0,1.36-0.6,1.36-1.38C98.233,2.44,97.633,1.84,96.873,1.84z"/>
	<path fill="#F4F4F4" d="M103.232,19.44c-0.02,0-0.04,0-0.08,0c-0.359,0-0.579-0.301-0.579-0.62c0-0.28,0.18-0.561,0.539-0.601
		c6.261-0.52,11-3.88,11.7-9.16h-14.239c-0.4,0-0.601-0.3-0.601-0.6c0-0.32,0.2-0.62,0.601-0.62h14.92c0.38,0,0.6,0.2,0.6,0.58
		c0,0.04,0,0.061,0,0.1C115.493,15.26,109.893,18.84,103.232,19.44z M114.473,4.48h-12.68c-0.4,0-0.601-0.301-0.601-0.601
		s0.2-0.6,0.601-0.6h12.68c0.4,0,0.601,0.3,0.601,0.6S114.873,4.48,114.473,4.48z"/>
</g>
</svg>
